<?xml version="1.0" encoding="UTF-8"?>
<svg width="20px" height="18px" viewBox="0 0 20 18" version="1.1" xmlns="http://www.w3.org/2000/svg" xmlns:xlink="http://www.w3.org/1999/xlink">
    <!-- Generator: Sketch 49 (51002) - http://www.bohemiancoding.com/sketch -->
    <title>btn_upload</title>
    <desc>Created with Sketch.</desc>
    <defs></defs>
    <g id="slices" stroke="none" stroke-width="1" fill="none" fill-rule="evenodd">
        <g id="Artboard" transform="translate(-116.000000, -172.000000)" fill="#FFFFFF" fill-rule="nonzero">
            <path d="M126.810157,181.839007 L126.810157,189.186067 C126.810157,189.63559 126.445747,190 125.996224,190 C125.546702,190 125.182292,189.63559 125.182292,189.186067 L125.182292,181.846658 L124.124728,182.904221 C123.806868,183.222082 123.291514,183.222082 122.973654,182.904221 C122.655793,182.586361 122.655793,182.071007 122.973654,181.753147 L125.418658,179.308142 C125.579077,179.147723 125.789799,179.068265 126.00005,179.069768 C126.210301,179.068265 126.421023,179.147723 126.581442,179.308142 L129.026446,181.753147 C129.344307,182.071007 129.344307,182.586361 129.026446,182.904221 C128.708586,183.222082 128.193232,183.222082 127.875371,182.904221 L126.810157,181.839007 Z M136,182.507197 C136,184.929793 134.035535,186.893696 131.612245,186.893696 L129.567712,186.893696 C129.116867,186.893696 128.751385,186.528319 128.751385,186.077603 C128.751385,185.626887 129.116867,185.26151 129.567712,185.26151 L131.612245,185.26151 C133.133846,185.26151 134.367347,184.028362 134.367347,182.507197 C134.367347,181.132665 133.353573,179.973354 132.006779,179.780806 L131.301915,179.680033 L131.306032,178.968214 C131.306122,176.007138 128.930491,173.632186 126,173.632186 C123.069509,173.632186 120.693878,176.007138 120.693878,178.93679 C120.693888,178.94727 120.69529,179.195018 120.698085,179.680033 L119.993221,179.780806 C118.646427,179.973354 117.632653,181.132665 117.632653,182.507197 C117.632653,184.028362 118.866154,185.26151 120.387755,185.26151 L122.518734,185.26151 C122.969579,185.26151 123.335061,185.626887 123.335061,186.077603 C123.335061,186.528319 122.969579,186.893696 122.518734,186.893696 L120.387755,186.893696 C117.964465,186.893696 116,184.929793 116,182.507197 C116,180.553257 117.285255,178.873274 119.088622,178.31612 C119.402635,174.775815 122.377062,172 126,172 C129.622938,172 132.597365,174.775815 132.911378,178.31612 C134.714745,178.873274 136,180.553257 136,182.507197 Z" id="btn_upload"></path>
        </g>
    </g>
</svg>