<?xml version="1.0" encoding="UTF-8"?>
<svg width="18px" height="18px" viewBox="0 0 18 18" version="1.1" xmlns="http://www.w3.org/2000/svg" xmlns:xlink="http://www.w3.org/1999/xlink">
    <!-- Generator: Sketch 49 (51002) - http://www.bohemiancoding.com/sketch -->
    <title>btn_new-table</title>
    <desc>Created with Sketch.</desc>
    <defs></defs>
    <g id="slices" stroke="none" stroke-width="1" fill="none" fill-rule="evenodd">
        <g id="Artboard" transform="translate(-150.000000, -172.000000)" fill="#FFFFFF" fill-rule="nonzero">
            <path d="M164.3,184.7 L167.2,184.7 C167.641828,184.7 168,185.058172 168,185.5 C168,185.941828 167.641828,186.3 167.2,186.3 L164.3,186.3 L164.3,189.2 C164.3,189.641828 163.941828,190 163.5,190 C163.058172,190 162.7,189.641828 162.7,189.2 L162.7,186.3 L159.8,186.3 C159.358172,186.3 159,185.941828 159,185.5 C159,185.058172 159.358172,184.7 159.8,184.7 L162.7,184.7 L162.7,181.8 C162.7,181.358172 163.058172,181 163.5,181 C163.941828,181 164.3,181.358172 164.3,181.8 L164.3,184.7 Z M157.3,184.747778 C157.741828,184.747778 158.1,185.105951 158.1,185.547778 C158.1,185.989606 157.741828,186.347778 157.3,186.347778 L151.8,186.347778 C150.805887,186.347778 150,185.541891 150,184.547778 L150,173.8 C150,172.805887 150.805887,172 151.8,172 L162.482593,172 C163.476705,172 164.282593,172.805887 164.282593,173.8 L164.282593,179.3 C164.282593,179.741828 163.924421,180.1 163.482593,180.1 C163.040765,180.1 162.682593,179.741828 162.682593,179.3 L162.682593,173.8 C162.682593,173.689543 162.59305,173.6 162.482593,173.6 L151.8,173.6 C151.689543,173.6 151.6,173.689543 151.6,173.8 L151.6,184.547778 C151.6,184.658235 151.689543,184.747778 151.8,184.747778 L157.3,184.747778 Z" id="btn_new-table"></path>
        </g>
    </g>
</svg>