<?xml version="1.0" encoding="UTF-8"?>
<svg width="18px" height="18px" viewBox="0 0 18 18" version="1.1" xmlns="http://www.w3.org/2000/svg" xmlns:xlink="http://www.w3.org/1999/xlink">
    <!-- Generator: Sketch 49 (51002) - http://www.bohemiancoding.com/sketch -->
    <title>data-sand-table</title>
    <desc>Created with Sketch.</desc>
    <defs></defs>
    <g id="slices" stroke="none" stroke-width="1" fill="none" fill-rule="evenodd">
        <g id="Artboard" transform="translate(-148.000000, -60.000000)" fill="#FFFFFF" fill-rule="nonzero">
            <path d="M149.478361,64.7179744 C149.397592,64.8978538 149.479668,65.1090787 149.666415,65.1912329 L156.391848,68.1499027 C156.773561,68.3178271 157.209834,68.3178271 157.591547,68.1499027 L164.31698,65.1912329 C164.401499,65.154051 164.468321,65.0879089 164.505034,65.0061446 C164.585802,64.8262653 164.503727,64.6150403 164.31698,64.5328862 L157.591547,61.5742163 C157.209834,61.406292 156.773561,61.406292 156.391848,61.5742163 L149.666415,64.5328862 C149.581896,64.570068 149.515074,64.6362101 149.478361,64.7179744 Z M155.809672,60.2483491 C156.562377,59.917217 157.421017,59.917217 158.173723,60.2483491 L164.899156,63.2070189 C165.819524,63.6119096 166.236056,64.6838755 165.824773,65.5998473 C165.640917,66.0093152 165.310918,66.3359565 164.899156,66.5171001 L158.173723,69.47577 C157.421017,69.806902 156.562377,69.806902 155.809672,69.47577 L149.084239,66.5171001 C148.163871,66.1122094 147.747338,65.0402435 148.158622,64.1242717 C148.342478,63.7148038 148.672477,63.3881625 149.084239,63.2070189 L155.809672,60.2483491 Z M164.987163,69.0594246 C165.353401,68.8995514 165.779775,69.067124 165.939497,69.4337085 C166.099219,69.800293 165.931805,70.2270714 165.565568,70.3869446 L158.173723,73.613693 C157.421017,73.944825 156.562377,73.944825 155.810309,73.6139728 L148.454426,70.3863981 C148.08849,70.2258346 147.92188,69.7987414 148.082291,69.4324587 C148.242703,69.0661759 148.669392,68.8994076 149.035328,69.0599711 L156.391848,72.2878257 C156.773561,72.4557501 157.209834,72.4557501 157.593433,72.2869993 L164.987163,69.0594246 Z M164.987163,73.1973476 C165.353401,73.0374744 165.779775,73.205047 165.939497,73.5716315 C166.099219,73.938216 165.931805,74.3649943 165.565568,74.5248675 L158.173723,77.7516159 C157.421017,78.082748 156.562377,78.082748 155.810309,77.7518958 L148.454426,74.5243211 C148.08849,74.3637576 147.92188,73.9366643 148.082291,73.5703816 C148.242703,73.2040989 148.669392,73.0373306 149.035328,73.197894 L156.391848,76.4257487 C156.773561,76.5936731 157.209834,76.5936731 157.593433,76.4249223 L164.987163,73.1973476 Z" id="data-sand-table"></path>
        </g>
    </g>
</svg>