<?xml version="1.0" encoding="UTF-8"?>
<svg width="64px" height="52px" viewBox="0 0 64 52" version="1.1" xmlns="http://www.w3.org/2000/svg" xmlns:xlink="http://www.w3.org/1999/xlink">
    <!-- Generator: Sketch 49 (51002) - http://www.bohemiancoding.com/sketch -->
    <title>file_vehicle</title>
    <desc>Created with Sketch.</desc>
    <defs>
        <linearGradient x1="50%" y1="0%" x2="50%" y2="100%" id="linearGradient-1">
            <stop stop-color="#7F95FC" offset="0%"></stop>
            <stop stop-color="#586AE6" offset="100%"></stop>
        </linearGradient>
        <linearGradient x1="50%" y1="0%" x2="50%" y2="100%" id="linearGradient-2">
            <stop stop-color="#26339C" offset="0%"></stop>
            <stop stop-color="#3C51E3" offset="100%"></stop>
        </linearGradient>
        <filter x="-8.5%" y="-12.7%" width="117.1%" height="125.4%" filterUnits="objectBoundingBox" id="filter-3">
            <feGaussianBlur stdDeviation="1.59877232" in="SourceGraphic"></feGaussianBlur>
        </filter>
        <linearGradient x1="50%" y1="0%" x2="50%" y2="100%" id="linearGradient-4">
            <stop stop-color="#99A5FF" offset="0%"></stop>
            <stop stop-color="#7C8BF1" offset="100%"></stop>
        </linearGradient>
    </defs>
    <g id="slices" stroke="none" stroke-width="1" fill="none" fill-rule="evenodd">
        <g id="Artboard" transform="translate(-380.000000, -137.000000)">
            <g id="file_vehicle" transform="translate(383.000000, 137.000000)">
                <g id="Group-18-Copy" transform="translate(0.935484, 0.806452)">
                    <path d="M4,0 L27.3754038,0 C28.4362698,-1.94877915e-16 29.4536854,0.421427361 30.2038309,1.17157288 L34.5458165,5.51355839 C34.7333528,5.70109477 34.9877067,5.80645161 35.2529232,5.80645161 L52.1290323,5.80645161 C54.3381713,5.80645161 56.1290323,7.59731261 56.1290323,9.80645161 L56.1290323,44.3870968 C56.1290323,46.5962358 54.3381713,48.3870968 52.1290323,48.3870968 L4,48.3870968 C1.790861,48.3870968 2.705415e-16,46.5962358 0,44.3870968 L0,4 C-2.705415e-16,1.790861 1.790861,4.05812251e-16 4,0 Z" id="Rectangle-23" fill="url(#linearGradient-1)"></path>
                    <rect id="Rectangle-29" fill="url(#linearGradient-2)" opacity="0.404891304" filter="url(#filter-3)" x="0" y="9.67741935" width="56.1290323" height="37.7419355" rx="4"></rect>
                    <rect id="Rectangle-29" fill="url(#linearGradient-4)" x="0" y="10.6451613" width="56.1290323" height="37.7419355" rx="4"></rect>
                    <path d="M37.5542733,27.8443548 L36.8647302,27.8443548 L35.5502888,22.683871 C35.3563548,22.1177419 34.8607457,21.7258065 34.2573955,21.6822581 L31.0251624,21.4209677 C30.0339442,21.333871 29.0211779,21.2903226 28.0299597,21.2903226 C27.0387415,21.2903226 26.0259752,21.333871 25.034757,21.4209677 L21.8240721,21.6822581 C21.2207219,21.7258065 20.7251129,22.1395161 20.5311789,22.7056452 L19.3029303,27.8443548 L18.5702908,27.8443548 C18.1608746,27.8443548 17.816103,28.1709677 17.816103,28.6064516 L17.816103,29.7822581 C17.816103,30.1959677 18.1393264,30.5443548 18.5702908,30.5443548 L18.7426765,30.5443548 L18.2255192,34.05 C18.2255192,35.0298387 18.8288694,35.8354839 19.6907983,36.1620968 L19.6907983,37.8822581 C19.6907983,38.3395161 20.057118,38.7096774 20.5096306,38.7096774 L21.5870417,38.7096774 C22.0395543,38.7096774 22.4058741,38.3395161 22.4058741,37.8822581 L22.4058741,36.3145161 L33.71869,36.3145161 L33.71869,37.8822581 C33.71869,38.3395161 34.0850097,38.7096774 34.5375224,38.7096774 L35.6149334,38.7096774 C36.0674461,38.7096774 36.4337658,38.3395161 36.4337658,37.8822581 L36.4337658,36.1403226 C37.2741464,35.8354839 37.8774966,35.0298387 37.8990448,34.0717742 L37.4465322,30.5225806 L37.5542733,30.5225806 C37.9636895,30.5225806 38.308461,30.1959677 38.308461,29.7604839 L38.308461,28.5846774 C38.308461,28.1709677 37.9852377,27.8443548 37.5542733,27.8443548 Z M22.7506456,33.8322581 C21.9749097,33.8322581 21.3500113,33.2008065 21.3500113,32.4169355 C21.3500113,31.6330645 21.9749097,31.0016129 22.7506456,31.0016129 C23.5263816,31.0016129 24.15128,31.6330645 24.15128,32.4169355 C24.15128,33.2008065 23.5263816,33.8322581 22.7506456,33.8322581 Z M33.3954667,33.8322581 C32.6197307,33.8322581 31.9948323,33.2008065 31.9948323,32.4169355 C31.9948323,31.6330645 32.6197307,31.0016129 33.3954667,31.0016129 C34.1712026,31.0016129 34.796101,31.6330645 34.796101,32.4169355 C34.7745528,33.2008065 34.1496544,33.8322581 33.3954667,33.8322581 Z M21.1560773,28.5629032 L22.3412294,23.6201613 L25.2071428,23.3806452 C26.1552645,23.2935484 27.1033862,23.2717742 28.0515079,23.2717742 C28.9996296,23.2717742 29.9477514,23.3153226 30.8958731,23.3806452 L33.7833347,23.6201613 L35.0546797,28.5629032 L21.1560773,28.5629032 Z" id="vehicle" fill="#5463C9" fill-rule="nonzero"></path>
                </g>
            </g>
        </g>
    </g>
</svg>