<?xml version="1.0" encoding="UTF-8"?>
<svg width="50px" height="60px" viewBox="0 0 50 60" version="1.1" xmlns="http://www.w3.org/2000/svg" xmlns:xlink="http://www.w3.org/1999/xlink">
    <!-- Generator: Sketch 49 (51002) - http://www.bohemiancoding.com/sketch -->
    <title>file_csv</title>
    <desc>Created with Sketch.</desc>
    <defs>
        <linearGradient x1="50%" y1="0%" x2="50%" y2="100%" id="linearGradient-1">
            <stop stop-color="#4FCFF4" offset="0%"></stop>
            <stop stop-color="#20A9F5" offset="100%"></stop>
        </linearGradient>
        <path d="M34.8387097,5.32907052e-15 L48.3870968,13.5483871 L48.3870968,56.0645161 C48.3870968,57.1690856 47.4916663,58.0645161 46.3870968,58.0645161 L2,58.0645161 C0.8954305,58.0645161 1.3527075e-16,57.1690856 0,56.0645161 L0,2 C-1.3527075e-16,0.8954305 0.8954305,2.02906125e-16 2,0 L34.8387097,0 Z" id="path-2"></path>
        <linearGradient x1="50%" y1="0%" x2="50%" y2="100%" id="linearGradient-4">
            <stop stop-color="#0AA0D1" offset="0%"></stop>
            <stop stop-color="#0186BC" offset="100%"></stop>
        </linearGradient>
        <filter x="-33.0%" y="-33.0%" width="166.1%" height="166.1%" filterUnits="objectBoundingBox" id="filter-5">
            <feGaussianBlur stdDeviation="1.59877232" in="SourceGraphic"></feGaussianBlur>
        </filter>
        <linearGradient x1="50%" y1="0%" x2="50%" y2="100%" id="linearGradient-6">
            <stop stop-color="#8DE5FF" offset="0%"></stop>
            <stop stop-color="#83D1FB" offset="100%"></stop>
        </linearGradient>
    </defs>
    <g id="slices" stroke="none" stroke-width="1" fill="none" fill-rule="evenodd">
        <g id="Artboard" transform="translate(-227.000000, -56.000000)">
            <g id="file_csv" transform="translate(227.000000, 56.000000)">
                <g id="Group-7-Copy-12" transform="translate(0.806452, 0.967742)">
                    <g id="Rectangle-23-Copy-5">
                        <mask id="mask-3" fill="white">
                            <use xlink:href="#path-2"></use>
                        </mask>
                        <use id="Mask" fill="url(#linearGradient-1)" xlink:href="#path-2"></use>
                        <path d="M33.8709677,0 L48.3870968,14.516129 L35.8709677,14.516129 C34.7663982,14.516129 33.8709677,13.6206985 33.8709677,12.516129 L33.8709677,0 Z" fill="url(#linearGradient-4)" opacity="0.404891304" filter="url(#filter-5)" mask="url(#mask-3)"></path>
                    </g>
                    <path d="M34.8387097,0 L48.3870968,13.5483871 L36.8387097,13.5483871 C35.7341402,13.5483871 34.8387097,12.6529566 34.8387097,11.5483871 L34.8387097,0 Z" id="Rectangle-23-Copy-5" fill="url(#linearGradient-6)"></path>
                    <path d="M18.93,29.5664516 C18.5687079,29.1870949 18.1487121,28.8912914 17.67,28.6790323 C17.1912879,28.4667731 16.6990348,28.3606452 16.1932258,28.3606452 C15.5248354,28.3606452 14.910648,28.5232242 14.3506452,28.8483871 C13.7906424,29.17355 13.3480661,29.6138682 13.0229032,30.1693548 C12.6977403,30.7248415 12.5351613,31.3367709 12.5351613,32.0051613 C12.5351613,32.6645194 12.6977403,33.2741907 13.0229032,33.8341935 C13.3480661,34.3941963 13.7906424,34.8367726 14.3506452,35.1619355 C14.910648,35.4870984 15.5248354,35.6496774 16.1932258,35.6496774 C16.6900025,35.6496774 17.1777395,35.5480655 17.6564516,35.3448387 C18.1351637,35.1416119 18.5596756,34.8638727 18.93,34.5116129 L19.7158065,35.3651613 C19.2370944,35.8348411 18.6816161,36.2029019 18.0493548,36.4693548 C17.4170936,36.7358078 16.7758097,36.8690323 16.1254839,36.8690323 C15.2222535,36.8690323 14.3958102,36.6545183 13.646129,36.2254839 C12.8964479,35.7964495 12.3048409,35.2116166 11.8712903,34.4709677 C11.4377398,33.7303189 11.2209677,32.9129077 11.2209677,32.0187097 C11.2209677,31.133544 11.4399978,30.3229069 11.8780645,29.5867742 C12.3161312,28.8506415 12.9145123,28.2703247 13.6732258,27.8458065 C14.4319393,27.4212882 15.2674148,27.2090323 16.1796774,27.2090323 C16.8390356,27.2090323 17.4780614,27.3332246 18.0967742,27.5816129 C18.715487,27.8300012 19.2506429,28.1799977 19.7022581,28.6316129 L18.93,29.5664516 Z M27.0725806,29.2683871 C26.6299978,28.9883857 26.1716153,28.7783878 25.6974194,28.6383871 C25.2232234,28.4983864 24.7874213,28.4283871 24.39,28.4283871 C23.8390295,28.4283871 23.3987113,28.5345151 23.0690323,28.7467742 C22.7393532,28.9590333 22.5745161,29.2503207 22.5745161,29.6206452 C22.5745161,29.9548404 22.67387,30.2280635 22.8725806,30.4403226 C23.0712913,30.6525817 23.3151598,30.8196768 23.6041935,30.9416129 C23.8932273,31.063549 24.2951587,31.2058056 24.81,31.3683871 C25.4512935,31.5670978 25.9706432,31.7567733 26.3680645,31.9374194 C26.7654859,32.1180654 27.1041921,32.3867724 27.3841935,32.7435484 C27.6641949,33.1003244 27.8041935,33.5722551 27.8041935,34.1593548 C27.8041935,34.701293 27.6574208,35.1754818 27.363871,35.5819355 C27.0703211,35.9883891 26.6593575,36.302257 26.1309677,36.5235484 C25.602578,36.7448398 24.9951647,36.8554839 24.3087097,36.8554839 C23.6132223,36.8554839 22.9358097,36.7200014 22.2764516,36.4490323 C21.6170935,36.1780632 21.0480669,35.8167765 20.5693548,35.3651613 L21.1519355,34.2406452 C21.6035506,34.683228 22.1116101,35.0241924 22.676129,35.2635484 C23.240648,35.5029044 23.7893522,35.6225806 24.3222581,35.6225806 C24.9545193,35.6225806 25.4535466,35.4983883 25.8193548,35.25 C26.1851631,35.0016117 26.3680645,34.6651634 26.3680645,34.2406452 C26.3680645,33.9064499 26.2687107,33.6309688 26.07,33.4141935 C25.8712893,33.1974183 25.6206467,33.0258071 25.3180645,32.8993548 C25.0154824,32.7729026 24.6067768,32.632904 24.0919355,32.4793548 C23.4596743,32.2896765 22.9448407,32.104517 22.5474194,31.923871 C22.149998,31.7432249 21.8135498,31.476776 21.5380645,31.1245161 C21.2625793,30.7722563 21.1248387,30.3070997 21.1248387,29.7290323 C21.1248387,29.2232233 21.2648373,28.776131 21.5448387,28.3877419 C21.8248401,27.9993529 22.2177394,27.7012914 22.7235484,27.4935484 C23.2293574,27.2858054 23.8164483,27.1819355 24.4848387,27.1819355 C25.0538738,27.1819355 25.6116102,27.265483 26.1580645,27.4325806 C26.7045189,27.5996783 27.1899979,27.8232244 27.6145161,28.1032258 L27.0725806,29.2683871 Z M28.59,27.2903226 L29.9854839,27.2903226 L33.1151613,35.3245161 L36.2448387,27.2903226 L37.6132258,27.2903226 L33.7654839,36.7741935 L32.4106452,36.7741935 L28.59,27.2903226 Z" id="CSV" fill="#FFFFFF"></path>
                </g>
            </g>
        </g>
    </g>
</svg>