<?xml version="1.0" encoding="UTF-8"?>
<svg width="50px" height="60px" viewBox="0 0 50 60" version="1.1" xmlns="http://www.w3.org/2000/svg" xmlns:xlink="http://www.w3.org/1999/xlink">
    <!-- Generator: Sketch 49 (51002) - http://www.bohemiancoding.com/sketch -->
    <title>file_xlsx</title>
    <desc>Created with Sketch.</desc>
    <defs>
        <linearGradient x1="50%" y1="0%" x2="50%" y2="100%" id="linearGradient-1">
            <stop stop-color="#4FCFF4" offset="0%"></stop>
            <stop stop-color="#20A9F5" offset="100%"></stop>
        </linearGradient>
        <path d="M34.8387097,5.32907052e-15 L48.3870968,13.5483871 L48.3870968,56.0645161 C48.3870968,57.1690856 47.4916663,58.0645161 46.3870968,58.0645161 L2,58.0645161 C0.8954305,58.0645161 1.3527075e-16,57.1690856 0,56.0645161 L0,2 C-1.3527075e-16,0.8954305 0.8954305,2.02906125e-16 2,0 L34.8387097,0 Z" id="path-2"></path>
        <linearGradient x1="50%" y1="0%" x2="50%" y2="100%" id="linearGradient-4">
            <stop stop-color="#0AA0D1" offset="0%"></stop>
            <stop stop-color="#0186BC" offset="100%"></stop>
        </linearGradient>
        <filter x="-33.0%" y="-33.0%" width="166.1%" height="166.1%" filterUnits="objectBoundingBox" id="filter-5">
            <feGaussianBlur stdDeviation="1.59877232" in="SourceGraphic"></feGaussianBlur>
        </filter>
        <linearGradient x1="50%" y1="0%" x2="50%" y2="100%" id="linearGradient-6">
            <stop stop-color="#8DE5FF" offset="0%"></stop>
            <stop stop-color="#83D1FB" offset="100%"></stop>
        </linearGradient>
    </defs>
    <g id="slices" stroke="none" stroke-width="1" fill="none" fill-rule="evenodd">
        <g id="Artboard" transform="translate(-467.000000, -56.000000)">
            <g id="file_xlsx" transform="translate(467.000000, 56.000000)">
                <g id="Group-7-Copy-9" transform="translate(0.806452, 0.967742)">
                    <g id="Rectangle-23-Copy-5">
                        <mask id="mask-3" fill="white">
                            <use xlink:href="#path-2"></use>
                        </mask>
                        <use id="Mask" fill="url(#linearGradient-1)" xlink:href="#path-2"></use>
                        <path d="M33.8709677,0 L48.3870968,14.516129 L35.8709677,14.516129 C34.7663982,14.516129 33.8709677,13.6206985 33.8709677,12.516129 L33.8709677,0 Z" fill="url(#linearGradient-4)" opacity="0.404891304" filter="url(#filter-5)" mask="url(#mask-3)"></path>
                    </g>
                    <path d="M34.8387097,0 L48.3870968,13.5483871 L36.8387097,13.5483871 C35.7341402,13.5483871 34.8387097,12.6529566 34.8387097,11.5483871 L34.8387097,0 Z" id="Rectangle-23-Copy-5" fill="url(#linearGradient-6)"></path>
                    <path d="M7.8,27.2903226 L9.31741935,27.2903226 L11.8103226,30.8264516 L14.3167742,27.2903226 L15.8477419,27.2903226 L12.6367742,31.8425806 L16.1187097,36.7741935 L14.5606452,36.7741935 L11.8103226,32.94 L9.08709677,36.7741935 L7.55612903,36.7741935 L11.0245161,31.8967742 L7.8,27.2903226 Z M17.8258065,27.2903226 L19.1264516,27.2903226 L19.1264516,35.5954839 L23.2722581,35.5954839 L23.2722581,36.7741935 L17.8258065,36.7741935 L17.8258065,27.2903226 Z M30.4664516,29.2683871 C30.0238688,28.9883857 29.5654862,28.7783878 29.0912903,28.6383871 C28.6170944,28.4983864 28.1812923,28.4283871 27.783871,28.4283871 C27.2329005,28.4283871 26.7925823,28.5345151 26.4629032,28.7467742 C26.1332242,28.9590333 25.9683871,29.2503207 25.9683871,29.6206452 C25.9683871,29.9548404 26.0677409,30.2280635 26.2664516,30.4403226 C26.4651623,30.6525817 26.7090308,30.8196768 26.9980645,30.9416129 C27.2870982,31.063549 27.6890297,31.2058056 28.203871,31.3683871 C28.8451645,31.5670978 29.3645141,31.7567733 29.7619355,31.9374194 C30.1593568,32.1180654 30.4980631,32.3867724 30.7780645,32.7435484 C31.0580659,33.1003244 31.1980645,33.5722551 31.1980645,34.1593548 C31.1980645,34.701293 31.0512918,35.1754818 30.7577419,35.5819355 C30.4641921,35.9883891 30.0532284,36.302257 29.5248387,36.5235484 C28.996449,36.7448398 28.3890357,36.8554839 27.7025806,36.8554839 C27.0070933,36.8554839 26.3296807,36.7200014 25.6703226,36.4490323 C25.0109644,36.1780632 24.4419379,35.8167765 23.9632258,35.3651613 L24.5458065,34.2406452 C24.9974216,34.683228 25.505481,35.0241924 26.07,35.2635484 C26.634519,35.5029044 27.1832231,35.6225806 27.716129,35.6225806 C28.3483903,35.6225806 28.8474175,35.4983883 29.2132258,35.25 C29.5790341,35.0016117 29.7619355,34.6651634 29.7619355,34.2406452 C29.7619355,33.9064499 29.6625816,33.6309688 29.463871,33.4141935 C29.2651603,33.1974183 29.0145176,33.0258071 28.7119355,32.8993548 C28.4093533,32.7729026 28.0006477,32.632904 27.4858065,32.4793548 C26.8535452,32.2896765 26.3387117,32.104517 25.9412903,31.923871 C25.543869,31.7432249 25.2074207,31.476776 24.9319355,31.1245161 C24.6564502,30.7722563 24.5187097,30.3070997 24.5187097,29.7290323 C24.5187097,29.2232233 24.6587083,28.776131 24.9387097,28.3877419 C25.2187111,27.9993529 25.6116104,27.7012914 26.1174194,27.4935484 C26.6232283,27.2858054 27.2103192,27.1819355 27.8787097,27.1819355 C28.4477448,27.1819355 29.0054811,27.265483 29.5519355,27.4325806 C30.0983898,27.5996783 30.5838688,27.8232244 31.0083871,28.1032258 L30.4664516,29.2683871 Z M32.4174194,27.2903226 L33.9348387,27.2903226 L36.4277419,30.8264516 L38.9341935,27.2903226 L40.4651613,27.2903226 L37.2541935,31.8425806 L40.736129,36.7741935 L39.1780645,36.7741935 L36.4277419,32.94 L33.7045161,36.7741935 L32.1735484,36.7741935 L35.6419355,31.8967742 L32.4174194,27.2903226 Z" id="XLSX" fill="#FFFFFF"></path>
                </g>
            </g>
        </g>
    </g>
</svg>