<?xml version="1.0" encoding="UTF-8"?>
<svg width="50px" height="60px" viewBox="0 0 50 60" version="1.1" xmlns="http://www.w3.org/2000/svg" xmlns:xlink="http://www.w3.org/1999/xlink">
    <!-- Generator: Sketch 49 (51002) - http://www.bohemiancoding.com/sketch -->
    <title>file_xls</title>
    <desc>Created with Sketch.</desc>
    <defs>
        <linearGradient x1="50%" y1="0%" x2="50%" y2="100%" id="linearGradient-1">
            <stop stop-color="#4FCFF4" offset="0%"></stop>
            <stop stop-color="#20A9F5" offset="100%"></stop>
        </linearGradient>
        <path d="M34.8387097,5.32907052e-15 L48.3870968,13.5483871 L48.3870968,56.0645161 C48.3870968,57.1690856 47.4916663,58.0645161 46.3870968,58.0645161 L2,58.0645161 C0.8954305,58.0645161 1.3527075e-16,57.1690856 0,56.0645161 L0,2 C-1.3527075e-16,0.8954305 0.8954305,2.02906125e-16 2,0 L34.8387097,0 Z" id="path-2"></path>
        <linearGradient x1="50%" y1="0%" x2="50%" y2="100%" id="linearGradient-4">
            <stop stop-color="#0AA0D1" offset="0%"></stop>
            <stop stop-color="#0186BC" offset="100%"></stop>
        </linearGradient>
        <filter x="-33.0%" y="-33.0%" width="166.1%" height="166.1%" filterUnits="objectBoundingBox" id="filter-5">
            <feGaussianBlur stdDeviation="1.59877232" in="SourceGraphic"></feGaussianBlur>
        </filter>
        <linearGradient x1="50%" y1="0%" x2="50%" y2="100%" id="linearGradient-6">
            <stop stop-color="#8DE5FF" offset="0%"></stop>
            <stop stop-color="#83D1FB" offset="100%"></stop>
        </linearGradient>
    </defs>
    <g id="slices" stroke="none" stroke-width="1" fill="none" fill-rule="evenodd">
        <g id="Artboard" transform="translate(-387.000000, -56.000000)">
            <g id="file_xls" transform="translate(387.000000, 56.000000)">
                <g id="Group-7-Copy-4" transform="translate(0.806452, 0.967742)">
                    <g id="Rectangle-23-Copy-5">
                        <mask id="mask-3" fill="white">
                            <use xlink:href="#path-2"></use>
                        </mask>
                        <use id="Mask" fill="url(#linearGradient-1)" xlink:href="#path-2"></use>
                        <path d="M33.8709677,0 L48.3870968,14.516129 L35.8709677,14.516129 C34.7663982,14.516129 33.8709677,13.6206985 33.8709677,12.516129 L33.8709677,0 Z" fill="url(#linearGradient-4)" opacity="0.404891304" filter="url(#filter-5)" mask="url(#mask-3)"></path>
                    </g>
                    <path d="M34.8387097,0 L48.3870968,13.5483871 L36.8387097,13.5483871 C35.7341402,13.5483871 34.8387097,12.6529566 34.8387097,11.5483871 L34.8387097,0 Z" id="Rectangle-23-Copy-5" fill="url(#linearGradient-6)"></path>
                    <path d="M12.386129,27.2903226 L13.9035484,27.2903226 L16.3964516,30.8264516 L18.9029032,27.2903226 L20.433871,27.2903226 L17.2229032,31.8425806 L20.7048387,36.7741935 L19.1467742,36.7741935 L16.3964516,32.94 L13.6732258,36.7741935 L12.1422581,36.7741935 L15.6106452,31.8967742 L12.386129,27.2903226 Z M22.4119355,27.2903226 L23.7125806,27.2903226 L23.7125806,35.5954839 L27.8583871,35.5954839 L27.8583871,36.7741935 L22.4119355,36.7741935 L22.4119355,27.2903226 Z M35.0525806,29.2683871 C34.6099978,28.9883857 34.1516153,28.7783878 33.6774194,28.6383871 C33.2032234,28.4983864 32.7674213,28.4283871 32.37,28.4283871 C31.8190295,28.4283871 31.3787113,28.5345151 31.0490323,28.7467742 C30.7193532,28.9590333 30.5545161,29.2503207 30.5545161,29.6206452 C30.5545161,29.9548404 30.65387,30.2280635 30.8525806,30.4403226 C31.0512913,30.6525817 31.2951598,30.8196768 31.5841935,30.9416129 C31.8732273,31.063549 32.2751587,31.2058056 32.79,31.3683871 C33.4312935,31.5670978 33.9506432,31.7567733 34.3480645,31.9374194 C34.7454859,32.1180654 35.0841921,32.3867724 35.3641935,32.7435484 C35.6441949,33.1003244 35.7841935,33.5722551 35.7841935,34.1593548 C35.7841935,34.701293 35.6374208,35.1754818 35.343871,35.5819355 C35.0503211,35.9883891 34.6393575,36.302257 34.1109677,36.5235484 C33.582578,36.7448398 32.9751647,36.8554839 32.2887097,36.8554839 C31.5932223,36.8554839 30.9158097,36.7200014 30.2564516,36.4490323 C29.5970935,36.1780632 29.0280669,35.8167765 28.5493548,35.3651613 L29.1319355,34.2406452 C29.5835506,34.683228 30.0916101,35.0241924 30.656129,35.2635484 C31.220648,35.5029044 31.7693522,35.6225806 32.3022581,35.6225806 C32.9345193,35.6225806 33.4335466,35.4983883 33.7993548,35.25 C34.1651631,35.0016117 34.3480645,34.6651634 34.3480645,34.2406452 C34.3480645,33.9064499 34.2487107,33.6309688 34.05,33.4141935 C33.8512893,33.1974183 33.6006467,33.0258071 33.2980645,32.8993548 C32.9954824,32.7729026 32.5867768,32.632904 32.0719355,32.4793548 C31.4396743,32.2896765 30.9248407,32.104517 30.5274194,31.923871 C30.129998,31.7432249 29.7935498,31.476776 29.5180645,31.1245161 C29.2425793,30.7722563 29.1048387,30.3070997 29.1048387,29.7290323 C29.1048387,29.2232233 29.2448373,28.776131 29.5248387,28.3877419 C29.8048401,27.9993529 30.1977394,27.7012914 30.7035484,27.4935484 C31.2093574,27.2858054 31.7964483,27.1819355 32.4648387,27.1819355 C33.0338738,27.1819355 33.5916102,27.265483 34.1380645,27.4325806 C34.6845189,27.5996783 35.1699979,27.8232244 35.5945161,28.1032258 L35.0525806,29.2683871 Z" id="XLS" fill="#FFFFFF"></path>
                </g>
            </g>
        </g>
    </g>
</svg>