<?xml version="1.0" encoding="UTF-8"?>
<svg width="64px" height="52px" viewBox="0 0 64 52" version="1.1" xmlns="http://www.w3.org/2000/svg" xmlns:xlink="http://www.w3.org/1999/xlink">
    <!-- Generator: Sketch 49 (51002) - http://www.bohemiancoding.com/sketch -->
    <title>file_asterisk</title>
    <desc>Created with Sketch.</desc>
    <defs>
        <linearGradient x1="50%" y1="0%" x2="50%" y2="100%" id="linearGradient-1">
            <stop stop-color="#7F95FC" offset="0%"></stop>
            <stop stop-color="#586AE6" offset="100%"></stop>
        </linearGradient>
        <linearGradient x1="50%" y1="0%" x2="50%" y2="100%" id="linearGradient-2">
            <stop stop-color="#26339C" offset="0%"></stop>
            <stop stop-color="#3C51E3" offset="100%"></stop>
        </linearGradient>
        <filter x="-8.5%" y="-12.7%" width="117.1%" height="125.4%" filterUnits="objectBoundingBox" id="filter-3">
            <feGaussianBlur stdDeviation="1.59877232" in="SourceGraphic"></feGaussianBlur>
        </filter>
        <linearGradient x1="50%" y1="0%" x2="50%" y2="100%" id="linearGradient-4">
            <stop stop-color="#99A5FF" offset="0%"></stop>
            <stop stop-color="#7C8BF1" offset="100%"></stop>
        </linearGradient>
    </defs>
    <g id="slices" stroke="none" stroke-width="1" fill="none" fill-rule="evenodd">
        <g id="Artboard" transform="translate(-540.000000, -137.000000)">
            <g id="file_asterisk" transform="translate(543.000000, 137.000000)">
                <g id="Group-18" transform="translate(0.935484, 0.806452)">
                    <path d="M4,0 L27.3754038,0 C28.4362698,-1.94877915e-16 29.4536854,0.421427361 30.2038309,1.17157288 L34.5458165,5.51355839 C34.7333528,5.70109477 34.9877067,5.80645161 35.2529232,5.80645161 L52.1290323,5.80645161 C54.3381713,5.80645161 56.1290323,7.59731261 56.1290323,9.80645161 L56.1290323,44.3870968 C56.1290323,46.5962358 54.3381713,48.3870968 52.1290323,48.3870968 L4,48.3870968 C1.790861,48.3870968 2.705415e-16,46.5962358 0,44.3870968 L0,4 C-2.705415e-16,1.790861 1.790861,4.05812251e-16 4,0 Z" id="Rectangle-23" fill="url(#linearGradient-1)"></path>
                    <rect id="Rectangle-29" fill="url(#linearGradient-2)" opacity="0.404891304" filter="url(#filter-3)" x="0" y="9.67741935" width="56.1290323" height="37.7419355" rx="4"></rect>
                    <rect id="Rectangle-29" fill="url(#linearGradient-4)" x="0" y="10.6451613" width="56.1290323" height="37.7419355" rx="4"></rect>
                    <path d="M27.4293834,37.1550047 L22.2662412,39.27618 C21.963083,39.4007265 21.6163599,39.2559332 21.4918133,38.9527751 C21.4566659,38.867223 21.4420022,38.7746399 21.4489923,38.6824139 L21.8708511,33.1164947 C21.8826562,32.9607416 21.8325773,32.8066145 21.7314774,32.6875464 L18.1186212,28.4325855 C17.9064894,28.182752 17.9370526,27.8082551 18.1868862,27.5961233 C18.2573898,27.5362591 18.3409103,27.4937033 18.4307825,27.4718519 L23.8546478,26.1530999 C24.0064258,26.1161967 24.1375341,26.020941 24.219533,25.8879952 L27.1498073,21.1371096 C27.3218607,20.8581574 27.687473,20.7714989 27.9664252,20.9435524 C28.0451462,20.9921063 28.1114285,21.0583885 28.1599824,21.1371096 L31.0902567,25.8879952 C31.1722556,26.020941 31.3033639,26.1161967 31.4551419,26.1530999 L36.8790072,27.4718519 C37.1974739,27.5492835 37.3928715,27.8702225 37.3154399,28.1886892 C37.2935885,28.2785614 37.2510327,28.3620819 37.1911685,28.4325855 L33.5783123,32.6875464 C33.4772124,32.8066145 33.4271335,32.9607416 33.4389385,33.1164947 L33.8607974,38.6824139 C33.8855672,39.0092215 33.6407172,39.2942312 33.3139097,39.319001 C33.2216837,39.3259911 33.1291006,39.3113273 33.0435485,39.27618 L27.8804063,37.1550047 C27.7359242,37.0956471 27.5738655,37.0956471 27.4293834,37.1550047 Z" id="Star-2" fill="#5463C9"></path>
                </g>
            </g>
        </g>
    </g>
</svg>