<?xml version="1.0" encoding="UTF-8"?>
<svg width="24px" height="24px" viewBox="0 0 24 24" version="1.1" xmlns="http://www.w3.org/2000/svg" xmlns:xlink="http://www.w3.org/1999/xlink">
    <!-- Generator: Sketch 49 (51002) - http://www.bohemiancoding.com/sketch -->
    <title>icon_tables</title>
    <desc>Created with Sketch.</desc>
    <defs></defs>
    <g id="slices" stroke="none" stroke-width="1" fill="none" fill-rule="evenodd">
        <g id="Artboard" transform="translate(-114.000000, -114.000000)" fill="#54BCC5" fill-rule="nonzero">
            <path d="M116.041086,120.310069 C115.934028,120.547183 116.042819,120.825617 116.290352,120.933911 L125.2049,124.833984 C125.710861,125.055339 126.289139,125.055339 126.7951,124.833984 L135.709648,120.933911 C135.821678,120.884899 135.91025,120.797711 135.958914,120.689931 C136.065972,120.452817 135.957181,120.174383 135.709648,120.066089 L126.7951,116.166016 C126.289139,115.944661 125.710861,115.944661 125.2049,116.166016 L116.290352,120.066089 C116.178322,120.115101 116.08975,120.202289 116.041086,120.310069 Z M124.422511,114.332013 C125.427045,113.889329 126.572955,113.889329 127.577489,114.332013 L136.553013,118.287406 C137.781304,118.828697 138.337193,120.261789 137.788309,121.486335 C137.542941,122.033746 137.102537,122.470426 136.553013,122.712594 L127.577489,126.667987 C126.572955,127.110671 125.427045,127.110671 124.422511,126.667987 L115.446987,122.712594 C114.218696,122.171303 113.662807,120.738211 114.211691,119.513665 C114.457059,118.966254 114.897463,118.529574 115.446987,118.287406 L124.422511,114.332013 Z M136.647955,126.074716 C137.136849,125.877472 137.70602,126.084215 137.919234,126.53649 C138.132449,126.988764 137.908966,127.515303 137.420072,127.712547 L127.552634,131.693556 C126.547841,132.102091 125.401635,132.102091 124.397692,131.693901 L114.57826,127.711873 C114.089769,127.513777 113.867359,126.98685 114.081493,126.534948 C114.295628,126.083046 114.865219,125.877295 115.353711,126.07539 L125.173993,130.057764 C125.683546,130.264941 126.26593,130.264941 126.778,130.056744 L136.647955,126.074716 Z M136.647955,132.074716 C137.136849,131.877472 137.70602,132.084215 137.919234,132.53649 C138.132449,132.988764 137.908966,133.515303 137.420072,133.712547 L127.552634,137.693556 C126.547841,138.102091 125.401635,138.102091 124.397692,137.693901 L114.57826,133.711873 C114.089769,133.513777 113.867359,132.98685 114.081493,132.534948 C114.295628,132.083046 114.865219,131.877295 115.353711,132.07539 L125.173993,136.057764 C125.683546,136.264941 126.26593,136.264941 126.778,136.056744 L136.647955,132.074716 Z" id="icon_tables"></path>
        </g>
    </g>
</svg>