<?xml version="1.0" encoding="UTF-8"?>
<svg width="14px" height="14px" viewBox="0 0 14 14" version="1.1" xmlns="http://www.w3.org/2000/svg" xmlns:xlink="http://www.w3.org/1999/xlink">
    <!-- Generator: Sketch 49.2 (51160) - http://www.bohemiancoding.com/sketch -->
    <title>info</title>
    <desc>Created with Sketch.</desc>
    <defs></defs>
    <g id="slices" stroke="none" stroke-width="1" fill="none" fill-rule="evenodd">
        <g id="Artboard" transform="translate(-161.000000, -507.000000)" fill="#7EC1F6" fill-rule="nonzero">
            <path d="M168,521 C164.134007,521 161,517.865993 161,514 C161,510.134007 164.134007,507 168,507 C171.865993,507 175,510.134007 175,514 C175,517.865993 171.865993,521 168,521 Z M168,519.564103 C171.072969,519.564103 173.564103,517.072969 173.564103,514 C173.564103,510.927031 171.072969,508.435897 168,508.435897 C164.927031,508.435897 162.435897,510.927031 162.435897,514 C162.435897,517.072969 164.927031,519.564103 168,519.564103 Z M168.049999,510.410256 C168.464213,510.410256 168.799999,510.746043 168.799999,511.160256 L168.799999,514.147436 C168.799999,514.561649 168.464213,514.897436 168.049999,514.897436 C167.635786,514.897436 167.299999,514.561649 167.299999,514.147436 L167.299999,511.160256 C167.299999,510.746043 167.635786,510.410256 168.049999,510.410256 Z M168.049999,517.394872 C167.580557,517.394872 167.199999,517.014314 167.199999,516.544872 C167.199999,516.07543 167.580557,515.694871 168.049999,515.694871 C168.519441,515.694871 168.9,516.07543 168.9,516.544872 C168.9,517.014314 168.519441,517.394872 168.049999,517.394872 Z" id="info" transform="translate(168.000000, 514.000000) scale(1, -1) translate(-168.000000, -514.000000) "></path>
        </g>
    </g>
</svg>