<?xml version="1.0" encoding="utf-8"?>
<!-- Generator: Adobe Illustrator 21.1.0, SVG Export Plug-In . SVG Version: 6.00 Build 0)  -->
<svg version="1.1" id="图层_1" xmlns="http://www.w3.org/2000/svg" xmlns:xlink="http://www.w3.org/1999/xlink" x="0px" y="0px"
	 viewBox="0 0 18 20" style="enable-background:new 0 0 18 20;" xml:space="preserve">
<style type="text/css">
	.st0{fill:#606060;}
</style>
<title>offline-data-table</title>
<desc>Created with Sketch.</desc>
<path class="st0" d="M5,10.5c-0.6,0-1,0.4-1,1s0.4,1,1,1h8c0.6,0,1-0.4,1-1s-0.4-1-1-1H5z M5,14.5c-0.6,0-1,0.4-1,1c0,0.6,0.4,1,1,1
	h8c0.6,0,1-0.4,1-1c0-0.6-0.4-1-1-1H5z M11.5,6V0.5l6,6H12C11.7,6.5,11.5,6.3,11.5,6z M11.4,7.8h6.1v10.7c0,0.6-0.4,1-1,1h-15
	c-0.6,0-1-0.4-1-1v-17c0-0.6,0.4-1,1-1h8.8v6.2C10.3,7.3,10.8,7.8,11.4,7.8z"/>
</svg>
