<?xml version="1.0" encoding="UTF-8"?>
<svg width="120px" height="120px" viewBox="0 0 120 120" version="1.1" xmlns="http://www.w3.org/2000/svg" xmlns:xlink="http://www.w3.org/1999/xlink">
    <!-- Generator: Sketch 49.2 (51160) - http://www.bohemiancoding.com/sketch -->
    <title>pic_status_complete</title>
    <desc>Created with Sketch.</desc>
    <defs></defs>
    <g id="slices" stroke="none" stroke-width="1" fill="none" fill-rule="evenodd">
        <g id="Artboard" transform="translate(-967.000000, -64.000000)" fill="#51E2B0" fill-rule="nonzero">
            <g id="pic_status_complete" transform="translate(967.000000, 64.000000)">
                <path d="M60,116.571429 C91.2435373,116.571429 116.571429,91.2435373 116.571429,60 C116.571429,28.7564627 91.2435373,3.42857143 60,3.42857143 C28.7564627,3.42857143 3.42857143,28.7564627 3.42857143,60 C3.42857143,91.2435373 28.7564627,116.571429 60,116.571429 Z M60,120 C26.862915,120 0,93.137085 0,60 C0,26.862915 26.862915,0 60,0 C93.137085,0 120,26.862915 120,60 C120,93.137085 93.137085,120 60,120 Z" id="Oval-4-Copy" fill-opacity="0.302932518"></path>
                <path d="M83.0736978,35.6562778 C84.2078676,34.1252918 86.3303263,33.8327093 87.8143421,35.0027764 C89.2983579,36.1728436 89.5819641,38.3624797 88.4477943,39.8934657 L55.5185128,84.3438367 C54.2766896,86.0201411 51.8880398,86.1846561 50.4412443,84.6935267 L31.8488578,65.5314168 C30.5274846,64.169553 30.5264381,61.9604559 31.8465203,60.5972603 C33.1666024,59.2340647 35.3079251,59.232985 36.6292982,60.5948488 L52.4895125,76.941065 L83.0736978,35.6562778 Z" id="Path-8"></path>
            </g>
        </g>
    </g>
</svg>