<?xml version="1.0" encoding="UTF-8"?>
<svg width="120px" height="120px" viewBox="0 0 120 120" version="1.1" xmlns="http://www.w3.org/2000/svg" xmlns:xlink="http://www.w3.org/1999/xlink">
    <!-- Generator: Sketch 49.2 (51160) - http://www.bohemiancoding.com/sketch -->
    <title>pic_status_error</title>
    <desc>Created with Sketch.</desc>
    <defs></defs>
    <g id="slices" stroke="none" stroke-width="1" fill="none" fill-rule="evenodd">
        <g id="Artboard" transform="translate(-827.000000, -64.000000)" fill="#FF888D" fill-rule="nonzero">
            <g id="pic_status_error" transform="translate(827.000000, 64.000000)">
                <path d="M60,116.571429 C91.2435373,116.571429 116.571429,91.2435373 116.571429,60 C116.571429,28.7564627 91.2435373,3.42857143 60,3.42857143 C28.7564627,3.42857143 3.42857143,28.7564627 3.42857143,60 C3.42857143,91.2435373 28.7564627,116.571429 60,116.571429 Z M60,120 C26.862915,120 0,93.137085 0,60 C0,26.862915 26.862915,0 60,0 C93.137085,0 120,26.862915 120,60 C120,93.137085 93.137085,120 60,120 Z" id="Oval-4-Copy" fill-opacity="0.301234149"></path>
                <path d="M65.4515175,60 L84.5852395,79.133722 C86.0906345,80.6391169 86.0906345,83.0798445 84.5852395,84.5852395 C83.0798445,86.0906345 80.6391169,86.0906345 79.133722,84.5852395 L60,65.4515175 L40.866278,84.5852395 C39.3608831,86.0906345 36.9201555,86.0906345 35.4147605,84.5852395 C33.9093655,83.0798445 33.9093655,80.6391169 35.4147605,79.133722 L54.5484825,60 L35.4147605,40.866278 C33.9093655,39.3608831 33.9093655,36.9201555 35.4147605,35.4147605 C36.9201555,33.9093655 39.3608831,33.9093655 40.866278,35.4147605 L60,54.5484825 L79.133722,35.4147605 C80.6391169,33.9093655 83.0798445,33.9093655 84.5852395,35.4147605 C86.0906345,36.9201555 86.0906345,39.3608831 84.5852395,40.866278 L65.4515175,60 Z" id="Combined-Shape"></path>
            </g>
        </g>
    </g>
</svg>