<?xml version="1.0" encoding="UTF-8"?>
<svg width="122px" height="210px" viewBox="0 0 122 210" version="1.1" xmlns="http://www.w3.org/2000/svg" xmlns:xlink="http://www.w3.org/1999/xlink">
    <!-- Generator: Sketch 49.2 (51160) - http://www.bohemiancoding.com/sketch -->
    <title>pic_status_executing</title>
    <desc>Created with Sketch.</desc>
    <defs>
        <linearGradient x1="50%" y1="0%" x2="50%" y2="100%" id="linearGradient-1">
            <stop stop-color="#40B5B6" stop-opacity="0" offset="0%"></stop>
            <stop stop-color="#3FB5B6" offset="49.7637349%"></stop>
            <stop stop-color="#54BCBD" stop-opacity="0" offset="100%"></stop>
        </linearGradient>
        <linearGradient x1="50%" y1="0%" x2="50%" y2="100%" id="linearGradient-2">
            <stop stop-color="#4263D1" stop-opacity="0" offset="0%"></stop>
            <stop stop-color="#4468D3" offset="49.7637349%"></stop>
            <stop stop-color="#5D81D5" stop-opacity="0" offset="100%"></stop>
        </linearGradient>
        <linearGradient x1="50%" y1="0%" x2="50%" y2="100%" id="linearGradient-3">
            <stop stop-color="#5DD2D3" offset="0%"></stop>
            <stop stop-color="#3EB4B5" offset="67.9180439%"></stop>
            <stop stop-color="#35A2E0" offset="100%"></stop>
        </linearGradient>
        <linearGradient x1="16.5339543%" y1="0%" x2="16.5339544%" y2="100%" id="linearGradient-4">
            <stop stop-color="#A3ECED" offset="0%"></stop>
            <stop stop-color="#6FD7D8" offset="65.1596747%"></stop>
            <stop stop-color="#5ABCE9" offset="100%"></stop>
        </linearGradient>
        <linearGradient x1="23.6677261%" y1="70.2922953%" x2="74.0769994%" y2="23.6597522%" id="linearGradient-5">
            <stop stop-color="#A3F5F5" offset="0%"></stop>
            <stop stop-color="#93E6E6" offset="100%"></stop>
        </linearGradient>
        <linearGradient x1="15.1070923%" y1="97.3971897%" x2="15.1070927%" y2="0%" id="linearGradient-6">
            <stop stop-color="#5B7DD2" offset="0%"></stop>
            <stop stop-color="#91B7FF" offset="100%"></stop>
        </linearGradient>
        <linearGradient x1="61.5936339%" y1="0%" x2="61.5938781%" y2="100%" id="linearGradient-7">
            <stop stop-color="#AECEFF" offset="0%"></stop>
            <stop stop-color="#92B5FF" offset="76.0206603%"></stop>
            <stop stop-color="#769EF7" offset="100%"></stop>
        </linearGradient>
        <linearGradient x1="23.6677261%" y1="70.2922953%" x2="74.0769994%" y2="23.6597522%" id="linearGradient-8">
            <stop stop-color="#B9D1FF" offset="0%"></stop>
            <stop stop-color="#9FC0FF" offset="100%"></stop>
        </linearGradient>
        <linearGradient x1="61.5938783%" y1="50%" x2="61.5938781%" y2="100%" id="linearGradient-9">
            <stop stop-color="#3E59CD" offset="0%"></stop>
            <stop stop-color="#4B77DA" offset="100%"></stop>
        </linearGradient>
        <linearGradient x1="28.0110737%" y1="16.1425781%" x2="87.1218181%" y2="67.2607422%" id="linearGradient-10">
            <stop stop-color="#2B54A3" offset="0%"></stop>
            <stop stop-color="#7DA2E9" offset="61.4849027%"></stop>
            <stop stop-color="#9FC0FF" offset="100%"></stop>
        </linearGradient>
        <linearGradient x1="50%" y1="100%" x2="50%" y2="0%" id="linearGradient-11">
            <stop stop-color="#B9D1FF" offset="0%"></stop>
            <stop stop-color="#4AB3CD" offset="100%"></stop>
        </linearGradient>
        <filter x="-15.1%" y="-13.6%" width="137.7%" height="133.9%" filterUnits="objectBoundingBox" id="filter-12">
            <feOffset dx="2" dy="2" in="SourceAlpha" result="shadowOffsetOuter1"></feOffset>
            <feGaussianBlur stdDeviation="3" in="shadowOffsetOuter1" result="shadowBlurOuter1"></feGaussianBlur>
            <feColorMatrix values="0 0 0 0 0   0 0 0 0 0.180933615   0 0 0 0 0.5841571  0 0 0 0.374518795 0" type="matrix" in="shadowBlurOuter1" result="shadowMatrixOuter1"></feColorMatrix>
            <feMerge>
                <feMergeNode in="shadowMatrixOuter1"></feMergeNode>
                <feMergeNode in="SourceGraphic"></feMergeNode>
            </feMerge>
        </filter>
    </defs>
    <g id="slices" stroke="none" stroke-width="1" fill="none" fill-rule="evenodd">
        <g id="Artboard" transform="translate(-1127.000000, -64.000000)">
            <g id="pic_status_executing" transform="translate(1127.000000, 64.000000)">
                <rect id="Rectangle-21" fill="url(#linearGradient-1)" opacity="0.5" x="42.4195402" y="0" width="37.394636" height="210"></rect>
                <rect id="Rectangle-21-Copy" fill="url(#linearGradient-2)" opacity="0.400000006" x="64.6226054" y="29.1666667" width="37.394636" height="151.666667"></rect>
                <rect id="Rectangle-21-Copy" fill="url(#linearGradient-2)" opacity="0.400000006" x="20.2164751" y="29.1666667" width="37.394636" height="151.666667"></rect>
                <rect id="Rectangle-21-Copy" fill="url(#linearGradient-2)" opacity="0.100000001" x="0.350574713" y="49" width="37.394636" height="112"></rect>
                <rect id="Rectangle-21-Copy" fill="url(#linearGradient-2)" opacity="0.100000001" x="84.4885057" y="49" width="37.394636" height="112"></rect>
                <g id="Group-15" transform="translate(0.000000, 30.333333)">
                    <g id="Group-14-Copy-2" opacity="0.800000012" transform="translate(44.419540, 0.000000)">
                        <polygon id="Polygon-2" fill="url(#linearGradient-3)" points="15.6895497 0 31.0091492 8.81782946 31.0091492 26.4534884 15.6895497 35.2713178 0.369950281 26.4534884 0.369950281 8.81782946"></polygon>
                        <polygon id="Polygon-2" fill="url(#linearGradient-4)" points="15.6895497 0 15.6895497 35.2713178 0.369950281 26.4534884 0.369950281 8.81782946"></polygon>
                        <path d="M31.0091492,8.81782946 L15.6895497,17.6356589 L0.369950281,8.81782946 L15.6895497,0 L31.0091492,8.81782946 Z" id="Combined-Shape" fill="url(#linearGradient-5)"></path>
                    </g>
                    <g id="Group-14-Copy-9" transform="translate(0.000000, 44.677003)">
                        <polygon id="Polygon-2" fill="url(#linearGradient-6)" points="20.4308939 0 40.8570265 11.7571059 40.8570265 35.2713178 20.4308939 47.0284238 0.00476129427 35.2713178 0.00476129427 11.7571059"></polygon>
                        <polygon id="Polygon-2" fill="url(#linearGradient-7)" points="20.4308939 0 20.4308939 47.0284238 0.00476129427 35.2713178 0.00476129427 11.7571059"></polygon>
                        <path d="M40.8570265,11.7571059 L20.4308939,23.5142119 L0.00476129427,11.7571059 L20.4308939,0 L40.8570265,11.7571059 Z" id="Combined-Shape" fill="url(#linearGradient-8)"></path>
                    </g>
                    <g id="Group-14-Copy" transform="translate(19.892984, 32.919897)">
                        <polygon id="Polygon-2" fill="url(#linearGradient-6)" points="20.5860663 0 41.0121989 11.7571059 41.0121989 35.2713178 20.5860663 47.0284238 0.159933708 35.2713178 0.159933708 11.7571059"></polygon>
                        <polygon id="Polygon-2" fill="url(#linearGradient-7)" points="20.5860663 0 20.5860663 47.0284238 0.159933708 35.2713178 0.159933708 11.7571059"></polygon>
                        <path d="M41.0121989,11.7571059 L20.5860663,23.5142119 L0.159933708,11.7571059 L20.5860663,0 L41.0121989,11.7571059 Z" id="Combined-Shape" fill="url(#linearGradient-8)"></path>
                    </g>
                    <g id="Group-14-Copy-8" transform="translate(80.982759, 44.677003)">
                        <polygon id="Polygon-2" fill="url(#linearGradient-6)" points="20.4308939 0 40.8570265 11.7571059 40.8570265 35.2713178 20.4308939 47.0284238 0.00476129427 35.2713178 0.00476129427 11.7571059"></polygon>
                        <polygon id="Polygon-2" fill="url(#linearGradient-9)" points="20.4308939 0 20.4308939 47.0284238 0.00476129427 35.2713178 0.00476129427 11.7571059"></polygon>
                        <path d="M40.8570265,11.7571059 L20.4308939,23.5142119 L0.00476129427,11.7571059 L20.4308939,0 L40.8570265,11.7571059 Z" id="Combined-Shape" fill="url(#linearGradient-8)"></path>
                    </g>
                    <g id="Group-14-Copy-3" transform="translate(61.168600, 32.919897)">
                        <polygon id="Polygon-2" fill="url(#linearGradient-6)" points="20.5860663 0 41.0121989 11.7571059 41.0121989 35.2713178 20.5860663 47.0284238 0.159933708 35.2713178 0.159933708 11.7571059"></polygon>
                        <polygon id="Polygon-2" fill="url(#linearGradient-7)" points="20.5860663 0 20.5860663 47.0284238 0.159933708 35.2713178 0.159933708 11.7571059"></polygon>
                        <path d="M41.0121989,11.7571059 L20.5860663,23.5142119 L0.159933708,11.7571059 L20.5860663,0 L41.0121989,11.7571059 Z" id="Combined-Shape" fill="url(#linearGradient-8)"></path>
                    </g>
                    <g id="Group-14-Copy-10" transform="translate(61.168600, 79.948320)">
                        <polygon id="Polygon-2" fill="url(#linearGradient-6)" points="20.5860663 0 41.0121989 11.7571059 41.0121989 35.2713178 20.5860663 47.0284238 0.159933708 35.2713178 0.159933708 11.7571059"></polygon>
                        <polygon id="Polygon-2" fill="url(#linearGradient-7)" points="20.5860663 0 20.5860663 47.0284238 0.159933708 35.2713178 0.159933708 11.7571059"></polygon>
                        <path d="M41.0121989,11.7571059 L20.5860663,23.5142119 L0.159933708,11.7571059 L20.5860663,0 L41.0121989,11.7571059 Z" id="Combined-Shape" fill="url(#linearGradient-10)"></path>
                    </g>
                    <g id="Group-14-Copy-11" transform="translate(20.246833, 79.948320)">
                        <polygon id="Polygon-2" fill="url(#linearGradient-6)" points="20.5860663 0 41.0121989 11.7571059 41.0121989 35.2713178 20.5860663 47.0284238 0.159933708 35.2713178 0.159933708 11.7571059"></polygon>
                        <polygon id="Polygon-2" fill="url(#linearGradient-7)" points="20.5860663 0 20.5860663 47.0284238 0.159933708 35.2713178 0.159933708 11.7571059"></polygon>
                        <path d="M41.0121989,11.7571059 L20.5860663,23.5142119 L0.159933708,11.7571059 L20.5860663,0 L41.0121989,11.7571059 Z" id="Combined-Shape" fill="url(#linearGradient-8)"></path>
                    </g>
                    <g id="Group-14-Copy-5" transform="translate(41.889399, 109.341085)">
                        <polygon id="Polygon-2" fill="url(#linearGradient-3)" points="19.2274597 0 37.610979 10.5813953 37.610979 31.744186 19.2274597 42.3255814 0.843940337 31.744186 0.843940337 10.5813953"></polygon>
                        <polygon id="Polygon-2" fill="url(#linearGradient-4)" points="19.2274597 0 19.2274597 42.3255814 0.843940337 31.744186 0.843940337 10.5813953"></polygon>
                        <path d="M37.610979,10.5813953 L19.2274597,21.1627907 L0.843940337,10.5813953 L19.2274597,0 L37.610979,10.5813953 Z" id="Combined-Shape" fill="url(#linearGradient-5)"></path>
                    </g>
                    <g id="Group-14-Copy-4" transform="translate(40.530792, 68.073636)">
                        <polygon id="Polygon-2" fill="url(#linearGradient-6)" points="20.5860663 0 41.0121989 11.7571059 41.0121989 35.2713178 20.5860663 47.0284238 0.159933708 35.2713178 0.159933708 11.7571059"></polygon>
                        <polygon id="Polygon-2" fill="url(#linearGradient-7)" points="20.5860663 0 20.5860663 47.0284238 0.159933708 35.2713178 0.159933708 11.7571059"></polygon>
                        <path d="M41.0121989,11.7571059 L20.5860663,23.5142119 L0.159933708,11.7571059 L20.5860663,0 L41.0121989,11.7571059 Z" id="Combined-Shape" fill="url(#linearGradient-11)"></path>
                    </g>
                    <g id="Group-14-Copy" filter="url(#filter-12)" transform="translate(34.044624, 25.865633)">
                        <polygon id="Polygon-2" fill="url(#linearGradient-3)" points="26.4825829 0 52.0152486 14.6963824 52.0152486 44.0891473 26.4825829 58.7855297 0.949917135 44.0891473 0.949917135 14.6963824"></polygon>
                        <polygon id="Polygon-2" fill="url(#linearGradient-4)" points="26.4825829 0 26.4825829 58.7855297 0.949917135 44.0891473 0.949917135 14.6963824"></polygon>
                        <path d="M52.0152486,14.6963824 L26.4825829,29.3927649 L0.949917135,14.6963824 L26.4825829,0 L52.0152486,14.6963824 Z" id="Combined-Shape" fill="url(#linearGradient-5)"></path>
                    </g>
                </g>
            </g>
        </g>
    </g>
</svg>