<?xml version="1.0" encoding="UTF-8"?>
<svg width="18px" height="20px" viewBox="0 0 18 20" version="1.1" xmlns="http://www.w3.org/2000/svg" xmlns:xlink="http://www.w3.org/1999/xlink">
    <!-- Generator: Sketch 49 (51002) - http://www.bohemiancoding.com/sketch -->
    <title>result-set</title>
    <desc>Created with Sketch.</desc>
    <defs></defs>
    <g id="Page-1" stroke="none" stroke-width="1" fill="none" fill-rule="evenodd">
        <g id="2-2.沙盘" transform="translate(-26.000000, -1040.000000)" fill="#C6DEF0" fill-rule="nonzero">
            <g id="Tabs-03" transform="translate(0.000000, 1020.000000)">
                <g id="Phone_result-type" transform="translate(20.000000, 15.000000)">
                    <g id="Group-6" transform="translate(6.000000, 5.000000)">
                        <path d="M6.21353437,2.27969215 C6.47454052,0.97942658 7.62289159,2.52970711e-16 9,0 C10.3771084,-2.52970711e-16 11.5254595,0.97942658 11.7864656,2.27969215 L13.7368421,2.27969215 L13.7368421,5.09281994 C13.7368421,5.64510469 13.2891269,6.09281994 12.7368421,6.09281994 L5.26315789,6.09281994 C4.71087314,6.09281994 4.26315789,5.64510469 4.26315789,5.09281994 L4.26315789,2.27969215 L6.21353437,2.27969215 Z M14.8893657,4.76190476 L14.8893657,2.85714286 L16.1052632,2.85714286 C17.1516974,2.85714286 18,3.70993381 18,4.76190476 L18,18.0952381 C18,19.147209 17.1516974,20 16.1052632,20 L1.89473684,20 C0.848302579,20 2.10358047e-16,19.147209 0,18.0952381 L0,4.76190476 C-1.05179023e-16,3.70993381 0.848302579,2.85714286 1.89473684,2.85714286 L3.27785773,2.85714286 L3.27785773,4.76190476 L1.89473684,4.76190476 L1.89473684,18.0952381 L16.1052632,18.0952381 L16.1052632,4.76190476 L14.8893657,4.76190476 Z M9,3.80952381 C9.52321713,3.80952381 9.94736842,3.38312833 9.94736842,2.85714286 C9.94736842,2.33115738 9.52321713,1.9047619 9,1.9047619 C8.47678287,1.9047619 8.05263158,2.33115738 8.05263158,2.85714286 C8.05263158,3.38312833 8.47678287,3.80952381 9,3.80952381 Z M4.81578947,14.0687779 L10.5,14.0687779 L10.5,15.4558067 L4.81578947,15.4558067 L4.81578947,14.0687779 Z M4.81578947,11.211635 L12.9068443,11.211635 L12.9068443,12.5986638 L4.81578947,12.5986638 L4.81578947,11.211635 Z M4.81578947,8.35449219 L12.9068443,8.35449219 L12.9068443,9.74152096 L4.81578947,9.74152096 L4.81578947,8.35449219 Z" id="result-set"></path>
                    </g>
                </g>
            </g>
        </g>
    </g>
</svg>