<?xml version="1.0" encoding="UTF-8"?>
<svg width="20px" height="20px" viewBox="0 0 20 20" version="1.1" xmlns="http://www.w3.org/2000/svg" xmlns:xlink="http://www.w3.org/1999/xlink">
    <!-- Generator: Sketch 49 (51002) - http://www.bohemiancoding.com/sketch -->
    <title>sand-table-overview</title>
    <desc>Created with Sketch.</desc>
    <defs></defs>
    <g id="slices" stroke="none" stroke-width="1" fill="none" fill-rule="evenodd">
        <g id="Artboard" transform="translate(-115.000000, -60.000000)" fill="#929EAA" fill-rule="nonzero">
            <path d="M130.348837,78.2665666 L133.372093,76.5137725 C133.516001,76.4303392 133.604651,76.2761481 133.604651,76.1092816 L133.604651,72.2436476 L130.348837,74.0545529 L130.348837,78.2665666 Z M128.953488,78.2665666 L128.953488,74.0525679 L125.697674,72.2236277 L125.697674,76.1092816 C125.697674,76.2761481 125.786325,76.4303392 125.930233,76.5137725 L128.953488,78.2665666 Z M119.651163,78.2665666 L119.651163,74.0525679 L116.395349,72.2236277 L116.395349,76.1092816 C116.395349,76.2761481 116.483999,76.4303392 116.627907,76.5137725 L119.651163,78.2665666 Z M121.046512,78.2665666 L124.069767,76.5137725 C124.213675,76.4303392 124.302326,76.2761481 124.302326,76.1092816 L124.302326,72.0893852 L121.046512,74.0395846 L121.046512,78.2665666 Z M125.697674,70.092913 L128.72093,68.3401189 C128.864838,68.2566856 128.953488,68.1024945 128.953488,67.935628 L128.953488,63.9157316 L125.697674,65.865931 L125.697674,70.092913 Z M124.302326,70.092913 L124.302326,65.8789143 L121.046512,64.0499741 L121.046512,67.935628 C121.046512,68.1024945 121.135162,68.2566856 121.27907,68.3401189 L124.302326,70.092913 Z M132.589806,71.2063342 L129.883721,69.6374263 C129.739813,69.553993 129.562512,69.553993 129.418605,69.6374263 L126.728426,71.197112 L129.652844,72.8398918 L132.589806,71.2063342 Z M123.168198,71.137178 L120.581395,69.6374263 C120.437488,69.553993 120.260187,69.553993 120.116279,69.6374263 L117.426101,71.197112 L120.337637,72.8326555 L123.168198,71.137178 Z M127.819361,62.9635244 L125.232558,61.4637727 C125.088651,61.3803394 124.911349,61.3803394 124.767442,61.4637727 L122.077264,63.0234584 L124.988799,64.6590019 L127.819361,62.9635244 Z M130.313908,68.2961708 C130.40548,68.3312374 130.494944,68.3738317 130.581395,68.4239535 L134.069767,70.4464082 C134.645397,70.7801414 135,71.3969057 135,72.064372 L135,76.1092816 C135,76.7767479 134.645397,77.3935122 134.069767,77.7272454 L130.581395,79.7497001 C130.005765,80.0834333 129.29656,80.0834333 128.72093,79.7497001 L125.232558,77.7272454 C125.150408,77.6796169 125.072759,77.6262239 125,77.5677416 C124.927241,77.6262239 124.849592,77.6796169 124.767442,77.7272454 L121.27907,79.7497001 C120.70344,80.0834333 119.994235,80.0834333 119.418605,79.7497001 L115.930233,77.7272454 C115.354603,77.3935122 115,76.7767479 115,76.1092816 L115,72.064372 C115,71.3969057 115.354603,70.7801414 115.930233,70.4464082 L119.418605,68.4239535 C119.505056,68.3738317 119.59452,68.3312374 119.686092,68.2961708 C119.66308,68.178648 119.651163,68.05799 119.651163,67.935628 L119.651163,63.8907184 C119.651163,63.2232521 120.005765,62.6064878 120.581395,62.2727546 L124.069767,60.2502999 C124.645397,59.9165667 125.354603,59.9165667 125.930233,60.2502999 L129.418605,62.2727546 C129.994235,62.6064878 130.348837,63.2232521 130.348837,63.8907184 L130.348837,67.935628 C130.348837,68.05799 130.33692,68.178648 130.313908,68.2961708 Z" id="sand-table-overview"></path>
        </g>
    </g>
</svg>