<?xml version="1.0" encoding="UTF-8"?>
<svg width="20px" height="16px" viewBox="0 0 20 16" version="1.1" xmlns="http://www.w3.org/2000/svg" xmlns:xlink="http://www.w3.org/1999/xlink">
    <!-- Generator: Sketch 49 (51002) - http://www.bohemiancoding.com/sketch -->
    <title>special-data-base</title>
    <desc>Created with Sketch.</desc>
    <defs></defs>
    <g id="Page-1" stroke="none" stroke-width="1" fill="none" fill-rule="evenodd">
        <g id="2-2.沙盘" transform="translate(-25.000000, -923.000000)" fill="#C6DEF0">
            <g id="Group-4-Copy" transform="translate(20.000000, 915.000000)">
                <path d="M6.5,8 L14.7016602,8 L16.4580078,11 L23.5,11 C24.0522847,11 24.5,11.4477153 24.5,12 L24.5,23 C24.5,23.5522847 24.0522847,24 23.5,24 L6.5,24 C5.94771525,24 5.5,23.5522847 5.5,23 L5.5,9 C5.5,8.44771525 5.94771525,8 6.5,8 Z M14.6801633,20.2258404 C14.8836134,20.134785 15.1162337,20.134785 15.3196837,20.2258404 L16.9774996,20.9678068 C17.1038538,21.0243574 17.2429452,21.0463874 17.3805903,21.0316501 C17.810434,20.9856279 18.1215829,20.5998624 18.0755607,20.1700187 L17.882202,18.3640619 C17.8584727,18.1424317 17.9303563,17.9211967 18.0798247,17.7558418 L19.2977699,16.4084455 C19.3905984,16.3057506 19.4545317,16.1802745 19.4830504,16.0448121 C19.5721097,15.6217848 19.3013752,15.2066566 18.8783479,15.1175972 L17.1010298,14.743421 C16.8829142,14.6975014 16.6947204,14.5607706 16.5836469,14.3675203 L15.6785626,12.7928172 C15.6095796,12.6727976 15.5100011,12.5732192 15.3899815,12.5042361 C15.0151795,12.288813 14.5367075,12.4180152 14.3212844,12.7928172 L13.4162001,14.3675203 C13.3051266,14.5607706 13.1169328,14.6975014 12.8988172,14.743421 L11.1214992,15.1175972 C10.9860368,15.1461159 10.8605607,15.2100492 10.7578658,15.3028777 C10.4371661,15.5927662 10.4121886,16.0877458 10.7020771,16.4084455 L11.9200224,17.7558418 C12.0694907,17.9211967 12.1413744,18.1424317 12.1176451,18.3640619 L11.9242863,20.1700187 C11.9095491,20.3076638 11.931579,20.4467552 11.9881296,20.5731094 C12.1647283,20.9676934 12.6277634,21.1444055 13.0223475,20.9678068 L14.6801633,20.2258404 Z M18.2,8 L23.8,8 C24.1865993,8 24.5,8.31340067 24.5,8.69999999 C24.5,9.08659931 24.1865993,9.39999998 23.8,9.39999998 L18.2,9.39999998 C17.8134007,9.39999998 17.5,9.08659931 17.5,8.69999999 C17.5,8.31340067 17.8134007,8 18.2,8 Z" id="special-data-base"></path>
            </g>
        </g>
    </g>
</svg>