<?xml version="1.0" encoding="UTF-8"?>
<svg width="22px" height="22px" viewBox="0 0 22 22" version="1.1" xmlns="http://www.w3.org/2000/svg" xmlns:xlink="http://www.w3.org/1999/xlink">
    <!-- Generator: Sketch 49 (51002) - http://www.bohemiancoding.com/sketch -->
    <title>status_error_bg</title>
    <desc>Created with Sketch.</desc>
    <defs></defs>
    <g id="slices" stroke="none" stroke-width="1" fill="none" fill-rule="evenodd">
        <g id="Artboard" transform="translate(-157.000000, -351.000000)">
            <g id="status_error_bg" transform="translate(157.000000, 351.000000)">
                <circle id="Oval-14-Copy-5" fill="#172231" cx="11" cy="11" r="11"></circle>
                <path d="M11,20 C6.02943725,20 2,15.9705627 2,11 C2,6.02943725 6.02943725,2 11,2 C15.9705627,2 20,6.02943725 20,11 C20,15.9705627 15.9705627,20 11,20 Z M11,18 C14.8659932,18 18,14.8659932 18,11 C18,7.13400675 14.8659932,4 11,4 C7.13400675,4 4,7.13400675 4,11 C4,14.8659932 7.13400675,18 11,18 Z" id="Oval-4" fill-opacity="0.300000012" fill="#FF888D" fill-rule="nonzero"></path>
                <path d="M12.4852814,11.0710678 L14.6066017,13.1923882 C14.997126,13.5829124 14.997126,14.2160774 14.6066017,14.6066017 C14.2160774,14.997126 13.5829124,14.997126 13.1923882,14.6066017 L11.0710678,12.4852814 L8.94974747,14.6066017 C8.55922318,14.997126 7.9260582,14.997126 7.53553391,14.6066017 C7.14500961,14.2160774 7.14500961,13.5829124 7.53553391,13.1923882 L9.65685425,11.0710678 L7.53553391,8.94974747 C7.14500961,8.55922318 7.14500961,7.9260582 7.53553391,7.53553391 C7.9260582,7.14500961 8.55922318,7.14500961 8.94974747,7.53553391 L11.0710678,9.65685425 L13.1923882,7.53553391 C13.5829124,7.14500961 14.2160774,7.14500961 14.6066017,7.53553391 C14.997126,7.9260582 14.997126,8.55922318 14.6066017,8.94974747 L12.4852814,11.0710678 Z" id="Combined-Shape" fill="#FF888D"></path>
            </g>
        </g>
    </g>
</svg>