<?xml version="1.0" encoding="UTF-8"?>
<svg width="18px" height="18px" viewBox="0 0 18 18" version="1.1" xmlns="http://www.w3.org/2000/svg" xmlns:xlink="http://www.w3.org/1999/xlink">
    <!-- Generator: Sketch 49 (51002) - http://www.bohemiancoding.com/sketch -->
    <title>status_waiting</title>
    <desc>Created with Sketch.</desc>
    <defs></defs>
    <g id="slices" stroke="none" stroke-width="1" fill="none" fill-rule="evenodd">
        <g id="Artboard" transform="translate(-118.000000, -273.000000)" fill="#526375">
            <path d="M127.45,281.550007 L130.7125,281.550007 C131.147424,281.550007 131.5,281.902583 131.5,282.337507 C131.5,282.772431 131.147424,283.125007 130.7125,283.125007 L126.6625,283.125007 C126.227572,283.124996 125.875,282.772422 125.875,282.3375 L125.875,277.1625 C125.875,276.727576 126.227576,276.375 126.6625,276.375 C127.097424,276.375 127.45,276.727576 127.45,277.1625 L127.45,281.550007 Z M127,291 C122.029437,291 118,286.970563 118,282 C118,277.029437 122.029437,273 127,273 C131.970563,273 136,277.029437 136,282 C136,286.970563 131.970563,291 127,291 Z M127,289.425 C131.100714,289.425 134.425,286.100714 134.425,282 C134.425,277.899286 131.100714,274.575 127,274.575 C122.899286,274.575 119.575,277.899286 119.575,282 C119.575,286.100714 122.899286,289.425 127,289.425 Z" id="status_waiting"></path>
        </g>
    </g>
</svg>