<?xml version="1.0" encoding="UTF-8"?>
<svg width="18px" height="18px" viewBox="0 0 18 18" version="1.1" xmlns="http://www.w3.org/2000/svg" xmlns:xlink="http://www.w3.org/1999/xlink">
    <!-- Generator: Sketch 49 (51002) - http://www.bohemiancoding.com/sketch -->
    <title>status_error</title>
    <desc>Created with Sketch.</desc>
    <defs></defs>
    <g id="slices" stroke="none" stroke-width="1" fill="none" fill-rule="evenodd">
        <g id="Artboard" transform="translate(-118.000000, -353.000000)" fill="#FF888D">
            <g id="status_error" transform="translate(118.000000, 353.000000)">
                <path d="M9,18 C4.02943725,18 0,13.9705627 0,9 C0,4.02943725 4.02943725,0 9,0 C13.9705627,0 18,4.02943725 18,9 C18,13.9705627 13.9705627,18 9,18 Z M9,16 C12.8659932,16 16,12.8659932 16,9 C16,5.13400675 12.8659932,2 9,2 C5.13400675,2 2,5.13400675 2,9 C2,12.8659932 5.13400675,16 9,16 Z" id="Oval-4" fill-opacity="0.300000012" fill-rule="nonzero"></path>
                <path d="M10.4852814,9.07106781 L12.6066017,11.1923882 C12.997126,11.5829124 12.997126,12.2160774 12.6066017,12.6066017 C12.2160774,12.997126 11.5829124,12.997126 11.1923882,12.6066017 L9.07106781,10.4852814 L6.94974747,12.6066017 C6.55922318,12.997126 5.9260582,12.997126 5.53553391,12.6066017 C5.14500961,12.2160774 5.14500961,11.5829124 5.53553391,11.1923882 L7.65685425,9.07106781 L5.53553391,6.94974747 C5.14500961,6.55922318 5.14500961,5.9260582 5.53553391,5.53553391 C5.9260582,5.14500961 6.55922318,5.14500961 6.94974747,5.53553391 L9.07106781,7.65685425 L11.1923882,5.53553391 C11.5829124,5.14500961 12.2160774,5.14500961 12.6066017,5.53553391 C12.997126,5.9260582 12.997126,6.55922318 12.6066017,6.94974747 L10.4852814,9.07106781 Z" id="Combined-Shape"></path>
            </g>
        </g>
    </g>
</svg>