<?xml version="1.0" encoding="UTF-8"?>
<svg width="22px" height="22px" viewBox="0 0 22 22" version="1.1" xmlns="http://www.w3.org/2000/svg" xmlns:xlink="http://www.w3.org/1999/xlink">
    <!-- Generator: Sketch 49 (51002) - http://www.bohemiancoding.com/sketch -->
    <title>status_waiting_bg</title>
    <desc>Created with Sketch.</desc>
    <defs></defs>
    <g id="slices" stroke="none" stroke-width="1" fill="none" fill-rule="evenodd">
        <g id="Artboard" transform="translate(-157.000000, -271.000000)">
            <g id="status_waiting_bg" transform="translate(157.000000, 271.000000)">
                <circle id="Oval-14-Copy-2" fill="#172231" cx="11" cy="11" r="11"></circle>
                <path d="M11.45,10.5500069 L14.7125,10.5500069 C15.1474242,10.5500069 15.5,10.9025826 15.5,11.3375069 C15.5,11.7724311 15.1474242,12.1250068 14.7125,12.1250068 L10.6625,12.1250068 C10.2275721,12.1249963 9.875,11.772422 9.875,11.3375 L9.875,6.16249999 C9.875,5.72757575 10.2275758,5.375 10.6625,5.375 C11.0974242,5.375 11.45,5.72757575 11.45,6.16249999 L11.45,10.5500069 Z M11,20 C6.02943725,20 2,15.9705627 2,11 C2,6.02943725 6.02943725,2 11,2 C15.9705627,2 20,6.02943725 20,11 C20,15.9705627 15.9705627,20 11,20 Z M11,18.425 C15.1007143,18.425 18.425,15.1007143 18.425,11 C18.425,6.89928573 15.1007143,3.575 11,3.575 C6.89928573,3.575 3.575,6.89928573 3.575,11 C3.575,15.1007143 6.89928573,18.425 11,18.425 Z" id="status_waiting-copy" fill="#526375"></path>
            </g>
        </g>
    </g>
</svg>