<?xml version="1.0" encoding="UTF-8"?>
<svg width="18px" height="18px" viewBox="0 0 18 18" version="1.1" xmlns="http://www.w3.org/2000/svg" xmlns:xlink="http://www.w3.org/1999/xlink">
    <!-- Generator: Sketch 49 (51002) - http://www.bohemiancoding.com/sketch -->
    <title>status_not-running</title>
    <desc>Created with Sketch.</desc>
    <defs></defs>
    <g id="slices" stroke="none" stroke-width="1" fill="none" fill-rule="evenodd">
        <g id="Artboard" transform="translate(-118.000000, -313.000000)" fill="#8196AC">
            <g id="status_not-running" transform="translate(118.000000, 313.000000)">
                <path d="M9,18 C4.02943725,18 0,13.9705627 0,9 C0,4.02943725 4.02943725,0 9,0 C13.9705627,0 18,4.02943725 18,9 C18,13.9705627 13.9705627,18 9,18 Z M9,16 C12.8659932,16 16,12.8659932 16,9 C16,5.13400675 12.8659932,2 9,2 C5.13400675,2 2,5.13400675 2,9 C2,12.8659932 5.13400675,16 9,16 Z" id="Oval-4-Copy-2" fill-opacity="0.300000012" fill-rule="nonzero"></path>
                <path d="M14,9 C14,9.55228475 13.5522847,10 13,10 L5,10 C4.44771525,10 4,9.55228475 4,9 C4,8.44771525 4.44771525,8 5,8 L13,8 C13.5522847,8 14,8.44771525 14,9 Z" id="Combined-Shape-Copy-2"></path>
            </g>
        </g>
    </g>
</svg>