<?xml version="1.0" encoding="UTF-8"?>
<svg width="22px" height="22px" viewBox="0 0 22 22" version="1.1" xmlns="http://www.w3.org/2000/svg" xmlns:xlink="http://www.w3.org/1999/xlink">
    <!-- Generator: Sketch 49 (51002) - http://www.bohemiancoding.com/sketch -->
    <title>status_invalid_bg</title>
    <desc>Created with Sketch.</desc>
    <defs></defs>
    <g id="slices" stroke="none" stroke-width="1" fill="none" fill-rule="evenodd">
        <g id="Artboard" transform="translate(-157.000000, -428.000000)">
            <g id="status_invalid_bg" transform="translate(157.000000, 428.000000)">
                <circle id="Oval-14-Copy-7" fill="#172231" cx="11" cy="11" r="11"></circle>
                <path d="M6.80782891,16.6063847 C7.97640944,17.4815965 9.4276649,18 11,18 C14.8659932,18 18,14.8659932 18,11 C18,9.4276649 17.4815965,7.97640944 16.6063847,6.80782891 L6.80782891,16.6063847 Z M5.39361534,15.1921711 L15.1921711,5.39361534 C14.0235906,4.51840355 12.5723351,4 11,4 C7.13400675,4 4,7.13400675 4,11 C4,12.5723351 4.51840355,14.0235906 5.39361534,15.1921711 Z M11,20 C6.02943725,20 2,15.9705627 2,11 C2,6.02943725 6.02943725,2 11,2 C15.9705627,2 20,6.02943725 20,11 C20,15.9705627 15.9705627,20 11,20 Z" id="status_invalid-copy" fill="#526375" fill-rule="nonzero"></path>
            </g>
        </g>
    </g>
</svg>