<?xml version="1.0" encoding="UTF-8"?>
<svg width="22px" height="22px" viewBox="0 0 22 22" version="1.1" xmlns="http://www.w3.org/2000/svg" xmlns:xlink="http://www.w3.org/1999/xlink">
    <!-- Generator: Sketch 49.2 (51160) - http://www.bohemiancoding.com/sketch -->
    <title>status_warning_bg copy</title>
    <desc>Created with Sketch.</desc>
    <defs></defs>
    <g id="slices" stroke="none" stroke-width="1" fill="none" fill-rule="evenodd">
        <g id="Artboard" transform="translate(-157.000000, -466.000000)">
            <g id="status_warning_bg-copy" transform="translate(157.000000, 466.000000)">
                <circle id="Oval-14-Copy-7" fill="#172231" cx="11" cy="11" r="11"></circle>
                <g id="Group-12-Copy" transform="translate(2.000000, 2.000000)" fill="#FF9774">
                    <path d="M9,18 C4.02943725,18 0,13.9705627 0,9 C0,4.02943725 4.02943725,0 9,0 C13.9705627,0 18,4.02943725 18,9 C18,13.9705627 13.9705627,18 9,18 Z M9,16 C12.8659932,16 16,12.8659932 16,9 C16,5.13400675 12.8659932,2 9,2 C5.13400675,2 2,5.13400675 2,9 C2,12.8659932 5.13400675,16 9,16 Z" id="Oval-4" fill-opacity="0.295912591" fill-rule="nonzero"></path>
                    <rect id="Rectangle-19" x="8" y="4" width="2" height="7" rx="1"></rect>
                    <circle id="Oval-2" cx="9" cy="13" r="1"></circle>
                </g>
            </g>
        </g>
    </g>
</svg>