<?xml version="1.0" encoding="UTF-8"?>
<svg width="22px" height="22px" viewBox="0 0 22 22" version="1.1" xmlns="http://www.w3.org/2000/svg" xmlns:xlink="http://www.w3.org/1999/xlink">
    <!-- Generator: Sketch 49 (51002) - http://www.bohemiancoding.com/sketch -->
    <title>status_complete_bg</title>
    <desc>Created with Sketch.</desc>
    <defs></defs>
    <g id="slices" stroke="none" stroke-width="1" fill="none" fill-rule="evenodd">
        <g id="Artboard" transform="translate(-157.000000, -390.000000)">
            <g id="status_complete_bg" transform="translate(168.000000, 401.000000) rotate(-360.000000) translate(-168.000000, -401.000000) translate(157.000000, 390.000000)">
                <circle id="Oval-14-Copy-6" fill="#172231" cx="11" cy="11" r="11"></circle>
                <path d="M11,20 C6.02943725,20 2,15.9705627 2,11 C2,6.02943725 6.02943725,2 11,2 C15.9705627,2 20,6.02943725 20,11 C20,15.9705627 15.9705627,20 11,20 Z M11,18.5517241 C15.1707021,18.5517241 18.5517241,15.1707021 18.5517241,11 C18.5517241,6.82929792 15.1707021,3.44827586 11,3.44827586 C6.82929792,3.44827586 3.44827586,6.82929792 3.44827586,11 C3.44827586,15.1707021 6.82929792,18.5517241 11,18.5517241 Z" id="Oval-4-Copy-4" fill-opacity="0.300000012" fill="#51E2B0" fill-rule="nonzero"></path>
                <path d="M10.7818197,15.5413226 C10.7636562,15.5677465 10.7441846,15.5935376 10.7234058,15.618605 C10.3623758,16.0820365 9.69493719,16.1716694 9.22403513,15.8168192 C9.10506808,15.7271711 9.00991369,15.6176454 8.9397117,15.4963517 L6.15934196,12.6138208 C5.75116587,12.1906468 5.75722839,11.5184884 6.17297107,11.1027457 L6.18660241,11.0891144 C6.60017796,10.6755388 7.27071643,10.6755388 7.68429199,11.0891144 C7.6887947,11.0936171 7.6932567,11.0981603 7.69767745,11.1027435 L9.79087119,13.272849 L14.2033195,7.41733227 C14.561719,6.94172015 15.2378189,6.8467005 15.7134311,7.20509994 C16.1890432,7.56349938 16.2840628,8.23959934 15.9256634,8.71521146 L10.7818197,15.5413226 Z" id="Combined-Shape-Copy-10" fill="#51E2B0"></path>
            </g>
        </g>
    </g>
</svg>