<?xml version="1.0" encoding="UTF-8"?>
<svg width="18px" height="18px" viewBox="0 0 18 18" version="1.1" xmlns="http://www.w3.org/2000/svg" xmlns:xlink="http://www.w3.org/1999/xlink">
    <!-- Generator: Sketch 49 (51002) - http://www.bohemiancoding.com/sketch -->
    <title>status_complete</title>
    <desc>Created with Sketch.</desc>
    <defs></defs>
    <g id="slices" stroke="none" stroke-width="1" fill="none" fill-rule="evenodd">
        <g id="Artboard" transform="translate(-118.000000, -392.000000)" fill="#51E2B0">
            <g id="status_complete" transform="translate(127.000000, 401.000000) rotate(-360.000000) translate(-127.000000, -401.000000) translate(118.000000, 392.000000)">
                <path d="M9,18 C4.02943725,18 0,13.9705627 0,9 C0,4.02943725 4.02943725,0 9,0 C13.9705627,0 18,4.02943725 18,9 C18,13.9705627 13.9705627,18 9,18 Z M9,16.5517241 C13.1707021,16.5517241 16.5517241,13.1707021 16.5517241,9 C16.5517241,4.82929792 13.1707021,1.44827586 9,1.44827586 C4.82929792,1.44827586 1.44827586,4.82929792 1.44827586,9 C1.44827586,13.1707021 4.82929792,16.5517241 9,16.5517241 Z" id="Oval-4-Copy-4" fill-opacity="0.300000012" fill-rule="nonzero"></path>
                <path d="M8.78181969,13.5413226 C8.76365615,13.5677465 8.74418459,13.5935376 8.72340582,13.618605 C8.36237582,14.0820365 7.69493719,14.1716694 7.22403513,13.8168192 C7.10506808,13.7271711 7.00991369,13.6176454 6.9397117,13.4963517 L4.15934196,10.6138208 C3.75116587,10.1906468 3.75722839,9.51848842 4.17297107,9.10274574 L4.18660241,9.08911441 C4.60017796,8.67553885 5.27071643,8.67553885 5.68429199,9.08911441 C5.6887947,9.09361711 5.6932567,9.09816033 5.69767745,9.10274352 L7.79087119,11.272849 L12.2033195,5.41733227 C12.561719,4.94172015 13.2378189,4.8467005 13.7134311,5.20509994 C14.1890432,5.56349938 14.2840628,6.23959934 13.9256634,6.71521146 L8.78181969,13.5413226 Z" id="Combined-Shape-Copy-10"></path>
            </g>
        </g>
    </g>
</svg>