<?xml version="1.0" encoding="UTF-8"?>
<svg width="22px" height="22px" viewBox="0 0 22 22" version="1.1" xmlns="http://www.w3.org/2000/svg" xmlns:xlink="http://www.w3.org/1999/xlink">
    <!-- Generator: Sketch 49 (51002) - http://www.bohemiancoding.com/sketch -->
    <title>status_not-running_bg</title>
    <desc>Created with Sketch.</desc>
    <defs></defs>
    <g id="slices" stroke="none" stroke-width="1" fill="none" fill-rule="evenodd">
        <g id="Artboard" transform="translate(-157.000000, -311.000000)">
            <g id="status_not-running_bg" transform="translate(157.000000, 311.000000)">
                <circle id="Oval-14-Copy-3" fill="#172231" cx="11" cy="11" r="11"></circle>
                <path d="M11,20 C6.02943725,20 2,15.9705627 2,11 C2,6.02943725 6.02943725,2 11,2 C15.9705627,2 20,6.02943725 20,11 C20,15.9705627 15.9705627,20 11,20 Z M11,18 C14.8659932,18 18,14.8659932 18,11 C18,7.13400675 14.8659932,4 11,4 C7.13400675,4 4,7.13400675 4,11 C4,14.8659932 7.13400675,18 11,18 Z" id="Oval-4-Copy-2" fill-opacity="0.300000012" fill="#8196AC" fill-rule="nonzero"></path>
                <path d="M16,11 C16,11.5522847 15.5522847,12 15,12 L7,12 C6.44771525,12 6,11.5522847 6,11 C6,10.4477153 6.44771525,10 7,10 L15,10 C15.5522847,10 16,10.4477153 16,11 Z" id="Combined-Shape-Copy-2" fill="#8196AC"></path>
            </g>
        </g>
    </g>
</svg>