<?xml version="1.0" encoding="UTF-8"?>
<svg width="18px" height="18px" viewBox="0 0 18 18" version="1.1" xmlns="http://www.w3.org/2000/svg" xmlns:xlink="http://www.w3.org/1999/xlink">
    <!-- Generator: Sketch 51.2 (57519) - http://www.bohemiancoding.com/sketch -->
    <title>toolbar_delete_hover</title>
    <desc>Created with Sketch.</desc>
    <defs></defs>
    <g id="slices" stroke="none" stroke-width="1" fill="none" fill-rule="evenodd" fill-opacity="0.8">
        <g id="Artboard" transform="translate(-619.000000, -240.000000)" fill="#FFFFFF" fill-rule="nonzero">
            <g id="toolbar_delete_hover" transform="translate(619.000000, 240.000000)">
                <g id="toolbar_delete" transform="translate(0.428571, 0.428571)">
                    <path d="M13.9439901,5.84873661 C13.9439901,5.45888854 14.2851065,5.14285424 14.7058948,5.14285424 C15.1266832,5.14285424 15.4677996,5.45888854 15.4677996,5.84873661 L15.4677996,14.9243671 C15.4677996,16.1758291 14.2500638,17.1428546 12.8011329,17.1428546 L4.34875198,17.1428546 C2.89982112,17.1428546 1.68208531,16.1758291 1.68208531,14.9243671 L1.68208531,5.84873661 C1.68208531,5.45888854 2.02320169,5.14285424 2.44399007,5.14285424 C2.86477845,5.14285424 3.20589483,5.45888854 3.20589483,5.84873661 L3.20589483,14.9243671 C3.20589483,15.3436826 3.69374093,15.7310899 4.34875198,15.7310899 L12.8011329,15.7310899 C13.456144,15.7310899 13.9439901,15.3436826 13.9439901,14.9243671 L13.9439901,5.84873661 Z M10.4924665,5.14285133 C10.9132549,5.14285133 11.2543713,5.48396772 11.2543713,5.9047561 L11.2543713,13.9047561 C11.2543713,14.3255445 10.9132549,14.6666609 10.4924665,14.6666609 C10.0716781,14.6666609 9.73056174,14.3255445 9.73056174,13.9047561 L9.73056174,5.9047561 C9.73056174,5.48396772 10.0716781,5.14285133 10.4924665,5.14285133 Z M6.68294271,5.14285133 C7.1037311,5.14285133 7.44484748,5.48396772 7.44484748,5.9047561 L7.44484748,13.9047561 C7.44484748,14.3255445 7.1037311,14.6666609 6.68294271,14.6666609 C6.26215432,14.6666609 5.92103794,14.3255445 5.92103794,13.9047561 L5.92103794,5.9047561 C5.92103794,5.48396772 6.26215432,5.14285133 6.68294271,5.14285133 Z M0.761904773,2.47619629 L16.3809524,2.47619629 C16.8017408,2.47619629 17.1428571,2.81731268 17.1428571,3.23810106 C17.1428571,3.65888945 16.8017408,4.00000584 16.3809524,4.00000584 L0.761904773,4.00000584 C0.341116386,4.00000584 0,3.65888945 0,3.23810106 C0,2.81731268 0.341116386,2.47619629 0.761904773,2.47619629 Z M6.47619049,0 L10.6666667,0 C11.087455,0 11.4285714,0.341116386 11.4285714,0.761904773 C11.4285714,1.18269316 11.087455,1.52380955 10.6666667,1.52380955 L6.47619049,1.52380955 C6.0554021,1.52380955 5.71428571,1.18269316 5.71428571,0.761904773 C5.71428571,0.341116386 6.0554021,0 6.47619049,0 Z" id="Combined-Shape"></path>
                </g>
            </g>
        </g>
    </g>
</svg>