<?xml version="1.0" encoding="UTF-8"?>
<svg width="20px" height="20px" viewBox="0 0 20 20" version="1.1" xmlns="http://www.w3.org/2000/svg" xmlns:xlink="http://www.w3.org/1999/xlink">
    <!-- Generator: Sketch 49 (51002) - http://www.bohemiancoding.com/sketch -->
    <title>toolbar_share</title>
    <desc>Created with Sketch.</desc>
    <defs></defs>
    <g id="slices" stroke="none" stroke-width="1" fill="none" fill-rule="evenodd" fill-opacity="0.8">
        <g id="Artboard" transform="translate(-306.000000, -240.000000)" fill="#FFFFFF">
            <g id="toolbar_share" transform="translate(306.000000, 240.000000)">
                <g transform="translate(0.714286, 0.571429)" id="Combined-Shape">
                    <path d="M5.96019195,11.7407455 C5.33325843,12.4267968 4.43117129,12.8571429 3.42857143,12.8571429 C1.53502371,12.8571429 0,11.3221191 0,9.42857143 C0,7.53502371 1.53502371,6 3.42857143,6 C5.32211914,6 6.85714286,7.53502371 6.85714286,9.42857143 C6.85714286,9.70312782 6.82487087,9.97014668 6.76391329,10.2260416 L12.0017207,12.8544364 C11.6597148,13.3090133 11.4060557,13.8338326 11.2662489,14.4033887 L5.96019195,11.7407455 Z M6.80737032,6.79177349 L12.0740908,4.14087147 C12.0255385,3.9110861 12,3.67281118 12,3.42857143 C12,1.53502371 13.5350237,0 15.4285714,0 C17.3221191,0 18.8571429,1.53502371 18.8571429,3.42857143 C18.8571429,5.32211914 17.3221191,6.85714286 15.4285714,6.85714286 C14.3944353,6.85714286 13.4672345,6.39929834 12.8386134,5.67525374 L7.5712525,8.32647811 C7.42104514,7.76038886 7.15788763,7.24029053 6.80737032,6.79177349 Z M15.4285714,18.8571429 C13.5350237,18.8571429 12,17.3221191 12,15.4285714 C12,13.5350237 13.5350237,12 15.4285714,12 C17.3221191,12 18.8571429,13.5350237 18.8571429,15.4285714 C18.8571429,17.3221191 17.3221191,18.8571429 15.4285714,18.8571429 Z"></path>
                </g>
            </g>
        </g>
    </g>
</svg>