<?xml version="1.0" encoding="UTF-8"?>
<svg width="20px" height="20px" viewBox="0 0 20 20" version="1.1" xmlns="http://www.w3.org/2000/svg" xmlns:xlink="http://www.w3.org/1999/xlink">
    <!-- Generator: Sketch 49 (51002) - http://www.bohemiancoding.com/sketch -->
    <title>toolbar_multiple-exclusions_null</title>
    <desc>Created with Sketch.</desc>
    <defs>
        <circle id="path-1" cx="6.42857143" cy="6.42857143" r="6.42857143"></circle>
        <circle id="path-2" cx="9.85714286" cy="12.4285714" r="6.42857143"></circle>
        <circle id="path-3" cx="13.2857143" cy="6.42857143" r="6.42857143"></circle>
    </defs>
    <g id="slices" stroke="none" stroke-width="1" fill="none" fill-rule="evenodd">
        <g id="Artboard" transform="translate(-1038.000000, -314.000000)">
            <g id="toolbar_multiple-exclusions_null" transform="translate(1038.000000, 314.000000)">
                <g id="Group-10-Copy" transform="translate(0.142857, 0.428571)">
                    <g id="Oval-10-Copy-13">
                        <use fill-opacity="0.204115716" fill="#64798E" fill-rule="evenodd" xlink:href="#path-1"></use>
                        <circle stroke-opacity="0.395748415" stroke="#64798E" stroke-width="1" cx="6.42857143" cy="6.42857143" r="5.92857143"></circle>
                    </g>
                    <g id="Oval-10-Copy-14">
                        <use fill-opacity="0.204115716" fill="#64798E" fill-rule="evenodd" xlink:href="#path-2"></use>
                        <circle stroke-opacity="0.395748415" stroke="#64798E" stroke-width="1" cx="9.85714286" cy="12.4285714" r="5.92857143"></circle>
                    </g>
                    <g id="Oval-10-Copy-15">
                        <use fill-opacity="0.204115716" fill="#64798E" fill-rule="evenodd" xlink:href="#path-3"></use>
                        <circle stroke-opacity="0.395748415" stroke="#64798E" stroke-width="1" cx="13.2857143" cy="6.42857143" r="5.92857143"></circle>
                    </g>
                    <path d="M16.2784163,12.1195261 C16.2832634,12.2219322 16.2857143,12.3249656 16.2857143,12.4285714 C16.2857143,15.9789734 13.4075448,18.8571429 9.85714286,18.8571429 C6.30674089,18.8571429 3.42857143,15.9789734 3.42857143,12.4285714 C3.42857143,12.3249656 3.43102235,12.2219322 3.43586938,12.1195261 C4.32970919,12.5905409 5.3480062,12.8571429 6.42857143,12.8571429 C7.68906523,12.8571429 8.86482733,12.4943634 9.85714286,11.8675192 C10.8494584,12.4943634 12.0252205,12.8571429 13.2857143,12.8571429 C14.3662795,12.8571429 15.3845765,12.5905409 16.2784163,12.1195261 Z M16.2784163,12.1195261 C16.1677161,9.78069495 14.8071829,7.76904916 12.8498449,6.7376168 C12.8546919,6.63521066 12.8571429,6.53217727 12.8571429,6.42857143 C12.8571429,4.13866326 11.6598581,2.12839593 9.85714286,0.989623611 C10.8494584,0.3627795 12.0252205,3.94430453e-31 13.2857143,3.94430453e-31 C16.8361162,3.94430453e-31 19.7142857,2.87816947 19.7142857,6.42857143 C19.7142857,8.89840816 18.3214567,11.0429323 16.2784163,12.1195261 Z M9.85714286,0.989623611 C8.05442758,2.12839593 6.85714286,4.13866326 6.85714286,6.42857143 C6.85714286,6.53217727 6.85959378,6.63521066 6.86444081,6.7376168 C4.90710283,7.76904916 3.54656964,9.78069495 3.43586938,12.1195261 C1.39282901,11.0429323 0,8.89840816 0,6.42857143 C0,2.87816947 2.87816947,3.94430453e-31 6.42857143,3.94430453e-31 C7.68906523,3.94430453e-31 8.86482733,0.3627795 9.85714286,0.989623611 Z" id="Combined-Shape" fill-opacity="0.8" fill="#64798E"></path>
                </g>
            </g>
        </g>
    </g>
</svg>