<?xml version="1.0" encoding="UTF-8"?>
<svg width="22px" height="20px" viewBox="0 0 22 20" version="1.1" xmlns="http://www.w3.org/2000/svg" xmlns:xlink="http://www.w3.org/1999/xlink">
    <!-- Generator: Sketch 49 (51002) - http://www.bohemiancoding.com/sketch -->
    <title>toolbar_upload</title>
    <desc>Created with Sketch.</desc>
    <defs></defs>
    <g id="slices" stroke="none" stroke-width="1" fill="none" fill-rule="evenodd" fill-opacity="0.8">
        <g id="Artboard" transform="translate(-376.000000, -240.000000)" fill="#FFFFFF" fill-rule="nonzero">
            <g id="toolbar_upload" transform="translate(376.000000, 240.000000)">
                <g transform="translate(0.714286, 0.428571)" id="Combined-Shape">
                    <path d="M11.1190186,10.3075312 L11.1190186,18.0044515 C11.1190186,18.4753799 10.7441968,18.8571429 10.2818307,18.8571429 C9.81946461,18.8571429 9.44464282,18.4753799 9.44464282,18.0044515 L9.44464282,10.3155466 L8.35686347,11.42347 C8.02992125,11.7564667 7.49984319,11.7564667 7.17290098,11.42347 C6.84595876,11.0904733 6.84595876,10.550579 7.17290098,10.2175823 L9.68776249,7.65614926 C9.85276511,7.48809104 10.0695077,7.40484917 10.2857656,7.40642366 C10.5020235,7.40484917 10.7187661,7.48809104 10.8837687,7.65614926 L13.3986302,10.2175823 C13.7255724,10.550579 13.7255724,11.0904733 13.3986302,11.42347 C13.071688,11.7564667 12.5416099,11.7564667 12.2146677,11.42347 L11.1190186,10.3075312 Z M20.5714286,11.0075393 C20.5714286,13.5454978 18.5508361,15.6029197 16.058309,15.6029197 L13.9553606,15.6029197 C13.4916346,15.6029197 13.1157104,15.2201436 13.1157104,14.7479652 C13.1157104,14.2757869 13.4916346,13.8930107 13.9553606,13.8930107 L16.058309,13.8930107 C17.6233842,13.8930107 18.8921283,12.6011411 18.8921283,11.0075393 C18.8921283,9.56755357 17.8493897,8.35303778 16.4641151,8.15132069 L15.7391121,8.04574922 L15.7433468,7.30003343 C15.7434402,4.19795412 13.2999331,1.70990901 10.2857143,1.70990901 C7.27149548,1.70990901 4.82798834,4.19795412 4.82798834,7.2671133 C4.82799873,7.27809236 4.82944144,7.53763767 4.83231648,8.04574922 L4.10731351,8.15132069 C2.72203886,8.35303778 1.67930029,9.56755357 1.67930029,11.0075393 C1.67930029,12.6011411 2.94804438,13.8930107 4.51311953,13.8930107 L6.7049836,13.8930107 C7.16870957,13.8930107 7.54463375,14.2757869 7.54463375,14.7479652 C7.54463375,15.2201436 7.16870957,15.6029197 6.7049836,15.6029197 L4.51311953,15.6029197 C2.02059244,15.6029197 0,13.5454978 0,11.0075393 C0,8.96055451 1.32197656,7.20057296 3.17686824,6.61688747 C3.49985353,2.90799671 6.55926349,1.77635684e-15 10.2857143,1.77635684e-15 C14.0121651,-1.3410686e-14 17.071575,2.90799671 17.3945603,6.61688747 C19.249452,7.20057296 20.5714286,8.96055451 20.5714286,11.0075393 Z"></path>
                </g>
            </g>
        </g>
    </g>
</svg>