<?xml version="1.0" encoding="UTF-8"?>
<svg width="20px" height="20px" viewBox="0 0 20 20" version="1.1" xmlns="http://www.w3.org/2000/svg" xmlns:xlink="http://www.w3.org/1999/xlink">
    <!-- Generator: Sketch 51.2 (57519) - http://www.bohemiancoding.com/sketch -->
    <title>toolbar_box-select</title>
    <desc>Created with Sketch.</desc>
    <defs></defs>
    <g id="slices" stroke="none" stroke-width="1" fill="none" fill-rule="evenodd" fill-opacity="0.8">
        <g id="Artboard" transform="translate(-549.000000, -388.000000)" fill="#C6DEF0">
            <g id="toolbar_box-select" transform="translate(549.000000, 388.000000)">
                <g id="Group-37" transform="translate(0.428571, 0.428571)">
                    <path d="M15.3214286,1.17857143 L14.1428571,1.17857143 L14.1428571,0 L15.3214286,0 L16.5,-1.13794575e-16 L16.5,2.35714286 L15.3214286,2.35714286 L15.3214286,1.17857143 Z M1.17857143,15.3214286 L2.35714286,15.3214286 L2.35714286,16.5 L0,16.5 L0,15.3214286 L0,14.1428571 L1.17857143,14.1428571 L1.17857143,15.3214286 Z M1.17857143,1.17857143 L1.17857143,2.35714286 L-4.4408921e-16,2.35714286 L-2.22044605e-16,1.17857143 L0,0 L2.35714286,0 L2.35714286,1.17857143 L1.17857143,1.17857143 Z M14.8127392,12.8841677 L18.8571429,16.9285714 L16.9285714,18.8571429 L12.8841677,14.8127392 L11.625,18.375 L8.25,8.25 L18.375,11.625 L14.8127392,12.8841677 Z M1.17857143,9.42857143 L1.17857143,11.7857143 L4.4408921e-16,11.7857143 L8.8817842e-16,9.42857143 L1.17857143,9.42857143 Z M1.17857143,4.71428571 L1.17857143,7.07142857 L-4.4408921e-16,7.07142857 L0,4.71428571 L1.17857143,4.71428571 Z M16.5,4.71428571 L16.5,7.07142857 L15.3214286,7.07142857 L15.3214286,4.71428571 L16.5,4.71428571 Z M4.71428571,0 L7.07142857,0 L7.07142857,1.17857143 L4.71428571,1.17857143 L4.71428571,0 Z M4.71428571,15.3214286 L7.07142857,15.3214286 L7.07142857,16.5 L4.71428571,16.5 L4.71428571,15.3214286 Z M9.42857143,0 L11.7857143,0 L11.7857143,1.17857143 L9.42857143,1.17857143 L9.42857143,0 Z" id="Combined-Shape"></path>
                </g>
            </g>
        </g>
    </g>
</svg>