<?xml version="1.0" encoding="UTF-8"?>
<svg width="24px" height="16px" viewBox="0 0 24 16" version="1.1" xmlns="http://www.w3.org/2000/svg" xmlns:xlink="http://www.w3.org/1999/xlink">
    <!-- Generator: Sketch 49 (51002) - http://www.bohemiancoding.com/sketch -->
    <title>toolbar_union_hover</title>
    <desc>Created with Sketch.</desc>
    <defs>
        <path d="M11.5714286,14.3965374 C10.4367599,15.0529078 9.11939327,15.4285714 7.71428571,15.4285714 C3.45380336,15.4285714 0,11.9747681 0,7.71428571 C0,3.45380336 3.45380336,0 7.71428571,0 C9.11939327,0 10.4367599,0.375663675 11.5714286,1.03203408 C12.7060973,0.375663675 14.0234639,0 15.4285714,0 C19.6890538,0 23.1428571,3.45380336 23.1428571,7.71428571 C23.1428571,11.9747681 19.6890538,15.4285714 15.4285714,15.4285714 C14.0234639,15.4285714 12.7060973,15.0529078 11.5714286,14.3965374 Z" id="path-1"></path>
    </defs>
    <g id="slices" stroke="none" stroke-width="1" fill="none" fill-rule="evenodd">
        <g id="Artboard" transform="translate(-756.000000, -241.000000)">
            <g id="toolbar_union_hover" transform="translate(756.000000, 241.000000)">
                <g id="Group-11" transform="translate(0.428571, 0.285714)">
                    <g id="Combined-Shape">
                        <use fill-opacity="0.204115716" fill="#FFFFFF" fill-rule="evenodd" xlink:href="#path-1"></use>
                        <path stroke-opacity="0.395748415" stroke="#FFFFFF" stroke-width="1" d="M11.3210656,13.9637344 L11.5714286,13.8189073 L11.8217915,13.9637344 C12.9090632,14.5926871 14.1437293,14.9285714 15.4285714,14.9285714 C19.4129114,14.9285714 22.6428571,11.6986257 22.6428571,7.71428571 C22.6428571,3.72994573 19.4129114,0.5 15.4285714,0.5 C14.1437293,0.5 12.9090632,0.835884334 11.8217915,1.46483701 L11.5714286,1.60966417 L11.3210656,1.46483701 C10.233794,0.835884334 8.99912789,0.5 7.71428571,0.5 C3.72994573,0.5 0.5,3.72994573 0.5,7.71428571 C0.5,11.6986257 3.72994573,14.9285714 7.71428571,14.9285714 C8.99912789,14.9285714 10.233794,14.5926871 11.3210656,13.9637344 Z"></path>
                    </g>
                    <path d="M11.5714286,14.3965374 C10.4367599,15.0529078 9.11939327,15.4285714 7.71428571,15.4285714 C3.45380336,15.4285714 0,11.9747681 0,7.71428571 C0,3.45380336 3.45380336,0 7.71428571,0 C9.11939327,0 10.4367599,0.375663675 11.5714286,1.03203408 C12.7060973,0.375663675 14.0234639,0 15.4285714,0 C19.6890538,0 23.1428571,3.45380336 23.1428571,7.71428571 C23.1428571,11.9747681 19.6890538,15.4285714 15.4285714,15.4285714 C14.0234639,15.4285714 12.7060973,15.0529078 11.5714286,14.3965374 Z" id="Combined-Shape" fill-opacity="0.8" fill="#FFFFFF"></path>
                </g>
            </g>
        </g>
    </g>
</svg>