<?xml version="1.0" encoding="UTF-8"?>
<svg width="20px" height="20px" viewBox="0 0 20 20" version="1.1" xmlns="http://www.w3.org/2000/svg" xmlns:xlink="http://www.w3.org/1999/xlink">
    <!-- Generator: Sketch 51.2 (57519) - http://www.bohemiancoding.com/sketch -->
    <title>toolbar_join_null</title>
    <desc>Created with Sketch.</desc>
    <defs></defs>
    <g id="slices" stroke="none" stroke-width="1" fill="none" fill-rule="evenodd" fill-opacity="0.8">
        <g id="Artboard" transform="translate(-1243.000000, -312.000000)" fill="#64798E">
            <g id="toolbar_join_null" transform="translate(1243.000000, 312.000000)">
                <path d="M8.80875857,10 L10,8.80875857 L9.70218964,8.51094821 C8.55085681,7.35961538 8.55085681,5.49293603 9.70218964,4.3416032 L12.6802932,1.36349962 C13.8316261,0.212166792 15.6983054,0.212166792 16.8496382,1.36349962 L18.6365004,3.15036177 C19.7878332,4.3016946 19.7878332,6.16837395 18.6365004,7.31970678 L15.6583968,10.2978104 C14.507064,11.4491432 12.6403846,11.4491432 11.4890518,10.2978104 L11.1912414,10 L10,11.1912414 L10.2978104,11.4890518 C11.4491432,12.6403846 11.4491432,14.507064 10.2978104,15.6583968 L7.31970678,18.6365004 C6.16837395,19.7878332 4.3016946,19.7878332 3.15036177,18.6365004 L1.36349962,16.8496382 C0.212166792,15.6983054 0.212166792,13.8316261 1.36349962,12.6802932 L4.3416032,9.70218964 C5.49293603,8.55085681 7.35961538,8.55085681 8.51094821,9.70218964 L8.80875857,10 Z M7.43883092,11.3699276 L7.14102057,11.0721173 C6.74627788,10.6773746 6.10627353,10.6773746 5.71153085,11.0721173 L2.73342727,14.0502209 C2.33868458,14.4449636 2.33868458,15.0849679 2.73342727,15.4797106 L4.52028942,17.2665727 C4.9150321,17.6613154 5.55503645,17.6613154 5.94977913,17.2665727 L8.92788271,14.2884692 C9.3226254,13.8937265 9.3226254,13.2537221 8.92788271,12.8589794 L8.63007235,12.5611691 L7.61751714,13.5737243 C7.2885649,13.9026765 6.75522794,13.9026765 6.42627571,13.5737243 C6.09732347,13.2447721 6.09732347,12.7114351 6.42627571,12.3824829 L7.43883092,11.3699276 Z M12.5611691,8.63007235 L12.8589794,8.92788271 C13.2537221,9.3226254 13.8937265,9.3226254 14.2884692,8.92788271 L17.2665727,5.94977913 C17.6613154,5.55503645 17.6613154,4.9150321 17.2665727,4.52028942 L15.4797106,2.73342727 C15.0849679,2.33868458 14.4449636,2.33868458 14.0502209,2.73342727 L11.0721173,5.71153085 C10.6773746,6.10627353 10.6773746,6.74627788 11.0721173,7.14102057 L11.3699276,7.43883092 L12.3824829,6.42627571 C12.7114351,6.09732347 13.2447721,6.09732347 13.5737243,6.42627571 C13.9026765,6.75522794 13.9026765,7.2885649 13.5737243,7.61751714 L12.5611691,8.63007235 Z" id="Combined-Shape"></path>
            </g>
        </g>
    </g>
</svg>