<?xml version="1.0" encoding="UTF-8"?>
<svg width="20px" height="20px" viewBox="0 0 20 20" version="1.1" xmlns="http://www.w3.org/2000/svg" xmlns:xlink="http://www.w3.org/1999/xlink">
    <!-- Generator: Sketch 49 (51002) - http://www.bohemiancoding.com/sketch -->
    <title>toolbar_layout</title>
    <desc>Created with Sketch.</desc>
    <defs></defs>
    <g id="slices" stroke="none" stroke-width="1" fill="none" fill-rule="evenodd" fill-opacity="0.8">
        <g id="Artboard" transform="translate(-447.000000, -240.000000)" fill="#FFFFFF">
            <g id="toolbar_layout" transform="translate(447.000000, 240.000000)">
                <g transform="translate(0.571429, 0.571429)" id="Combined-Shape">
                    <path d="M9.17142857,8.82857404 L11.1428571,8.82857404 L11.1428571,10.028574 L9.17142857,10.028574 L9.17142857,16.8857143 L6,16.8857143 L6,15.6857143 L7.97142857,15.6857143 L7.97142857,10.028574 L6,10.028574 L6,8.82857404 L7.97142857,8.82857404 L7.97142857,3.17142857 L6,3.17142857 L6,1.97142857 L9.17142857,1.97142857 L9.17142857,8.82857404 Z M1,0 L4.14285714,0 C4.69514189,-1.01453063e-16 5.14285714,0.44771525 5.14285714,1 L5.14285714,4.14285714 C5.14285714,4.69514189 4.69514189,5.14285714 4.14285714,5.14285714 L1,5.14285714 C0.44771525,5.14285714 2.8967998e-16,4.69514189 2.22044605e-16,4.14285714 L0,1 C-6.76353751e-17,0.44771525 0.44771525,3.23497668e-16 1,2.22044605e-16 Z M1,6.85714286 L4.14285714,6.85714286 C4.69514189,6.85714286 5.14285714,7.30485811 5.14285714,7.85714286 L5.14285714,11 C5.14285714,11.5522847 4.69514189,12 4.14285714,12 L1,12 C0.44771525,12 2.8967998e-16,11.5522847 2.22044605e-16,11 L0,7.85714286 C-6.76353751e-17,7.30485811 0.44771525,6.85714286 1,6.85714286 Z M1,13.7142857 L4.14285714,13.7142857 C4.69514189,13.7142857 5.14285714,14.162001 5.14285714,14.7142857 L5.14285714,17.8571429 C5.14285714,18.4094276 4.69514189,18.8571429 4.14285714,18.8571429 L1,18.8571429 C0.44771525,18.8571429 2.8967998e-16,18.4094276 2.22044605e-16,17.8571429 L0,14.7142857 C-6.76353751e-17,14.162001 0.44771525,13.7142857 1,13.7142857 Z M13,6 L17.8571429,6 C18.4094276,6 18.8571429,6.44771525 18.8571429,7 L18.8571429,11.8571429 C18.8571429,12.4094276 18.4094276,12.8571429 17.8571429,12.8571429 L13,12.8571429 C12.4477153,12.8571429 12,12.4094276 12,11.8571429 L12,7 C12,6.44771525 12.4477153,6 13,6 Z"></path>
                </g>
            </g>
        </g>
    </g>
</svg>