<?xml version="1.0" encoding="UTF-8"?>
<svg width="18px" height="18px" viewBox="0 0 18 18" version="1.1" xmlns="http://www.w3.org/2000/svg" xmlns:xlink="http://www.w3.org/1999/xlink">
    <!-- Generator: Sketch 49 (51002) - http://www.bohemiancoding.com/sketch -->
    <title>toolbar_save</title>
    <desc>Created with Sketch.</desc>
    <defs></defs>
    <g id="slices" stroke="none" stroke-width="1" fill="none" fill-rule="evenodd" fill-opacity="0.8">
        <g id="Artboard" transform="translate(-238.000000, -240.000000)" fill="#FFFFFF">
            <g id="toolbar_save" transform="translate(238.000000, 240.000000)">
                <g transform="translate(0.428571, 0.428571)" id="Combined-Shape">
                    <path d="M1,0 L13.3000722,-1.99840144e-15 C13.5652886,-2.04712092e-15 13.8196426,0.10535684 14.0071789,0.292893219 L16.8499639,3.13567821 C17.0375003,3.32321459 17.1428571,3.5775685 17.1428571,3.84278499 L17.1428571,16.1428571 C17.1428571,16.6951419 16.6951419,17.1428571 16.1428571,17.1428571 L1,17.1428571 C0.44771525,17.1428571 6.76353751e-17,16.6951419 0,16.1428571 L-1.11022302e-16,1 C-1.78657678e-16,0.44771525 0.44771525,1.01453063e-16 1,0 Z M3.14285714,2.14285714 C2.59057239,2.14285714 2.14285714,2.59057239 2.14285714,3.14285714 L2.14285714,4.57142857 C2.14285714,5.12371332 2.59057239,5.57142857 3.14285714,5.57142857 L12.2857143,5.57142857 C12.837999,5.57142857 13.2857143,5.12371332 13.2857143,4.57142857 L13.2857143,3.14285714 C13.2857143,2.59057239 12.837999,2.14285714 12.2857143,2.14285714 L3.14285714,2.14285714 Z M3.14285714,8.57142857 C2.59057239,8.57142857 2.14285714,9.01914382 2.14285714,9.57142857 L2.14285714,14 C2.14285714,14.5522847 2.59057239,15 3.14285714,15 L14,15 C14.5522847,15 15,14.5522847 15,14 L15,9.57142857 C15,9.01914382 14.5522847,8.57142857 14,8.57142857 L3.14285714,8.57142857 Z M10.7142857,3 L12.0857143,3 L12.0857143,4.71428571 L10.7142857,4.71428571 L10.7142857,3 Z"></path>
                </g>
            </g>
        </g>
    </g>
</svg>