<?xml version="1.0" encoding="UTF-8"?>
<svg width="18px" height="18px" viewBox="0 0 18 18" version="1.1" xmlns="http://www.w3.org/2000/svg" xmlns:xlink="http://www.w3.org/1999/xlink">
    <!-- Generator: Sketch 51.2 (57519) - http://www.bohemiancoding.com/sketch -->
    <title>toolbar_filter_null</title>
    <desc>Created with Sketch.</desc>
    <defs></defs>
    <g id="slices" stroke="none" stroke-width="1" fill="none" fill-rule="evenodd" fill-opacity="0.8">
        <g id="Artboard" transform="translate(-689.000000, -316.000000)" fill="#64798E">
            <g id="toolbar_filter_null" transform="translate(689.000000, 316.000000)">
                <g id="toolbar_filter" transform="translate(0.428571, 0.142857)">
                    <path d="M5.51142647,8.1319472 L0.185045082,1.39111358 C-0.108640857,1.01943759 -0.0459874274,0.479603938 0.324985434,0.185361361 C0.4763351,0.0653161494 0.663714337,3.55274449e-17 0.856750867,0 L13.5924792,0 C14.0656307,1.59707641e-15 14.4491957,0.384292027 14.4491957,0.858340265 C14.4491957,1.05174267 14.3840031,1.23947705 14.264185,1.39111358 L8.9399979,8.12917022 L8.9399979,14.4974684 C8.9399979,14.8119898 8.79202457,15.1081846 8.54053393,15.297066 L6.31169449,16.9710309 C6.22509825,17.0360688 6.11972622,17.071232 6.01142647,17.071232 C5.7352841,17.071232 5.51142647,16.8473744 5.51142647,16.571232 L5.51142647,8.1319472 Z M11.9474301,7.43424078 L16.3412687,7.43424078 C16.7839738,7.43424078 17.1428571,7.79312413 17.1428571,8.23582918 C17.1428571,8.67853423 16.7839738,9.03741758 16.3412687,9.03741758 L11.9474301,9.03741758 C11.5047251,9.03741758 11.1458417,8.67853423 11.1458417,8.23582918 C11.1458417,7.79312413 11.5047251,7.43424078 11.9474301,7.43424078 Z M11.9474301,10.6405944 L16.3412687,10.6405944 C16.7839738,10.6405944 17.1428571,10.9994777 17.1428571,11.4421828 C17.1428571,11.8848878 16.7839738,12.2437712 16.3412687,12.2437712 L11.9474301,12.2437712 C11.5047251,12.2437712 11.1458417,11.8848878 11.1458417,11.4421828 C11.1458417,10.9994777 11.5047251,10.6405944 11.9474301,10.6405944 Z M11.9474301,13.846948 L16.3412687,13.846948 C16.7839738,13.846948 17.1428571,14.2058313 17.1428571,14.6485364 C17.1428571,15.0912414 16.7839738,15.4501248 16.3412687,15.4501248 L11.9474301,15.4501248 C11.5047251,15.4501248 11.1458417,15.0912414 11.1458417,14.6485364 C11.1458417,14.2058313 11.5047251,13.846948 11.9474301,13.846948 Z" id="Combined-Shape"></path>
                </g>
            </g>
        </g>
    </g>
</svg>