<?xml version="1.0" encoding="UTF-8"?>
<svg width="14px" height="14px" viewBox="0 0 14 14" version="1.1" xmlns="http://www.w3.org/2000/svg" xmlns:xlink="http://www.w3.org/1999/xlink">
    <!-- Generator: Sketch 49.2 (51160) - http://www.bohemiancoding.com/sketch -->
    <title>warning</title>
    <desc>Created with Sketch.</desc>
    <defs></defs>
    <g id="slices" stroke="none" stroke-width="1" fill="none" fill-rule="evenodd">
        <g id="Artboard" transform="translate(-120.000000, -507.000000)" fill="#F7696F" fill-rule="nonzero">
            <path d="M127,521 C123.134007,521 120,517.865993 120,514 C120,510.134007 123.134007,507 127,507 C130.865993,507 134,510.134007 134,514 C134,517.865993 130.865993,521 127,521 Z M127,519.564103 C130.072969,519.564103 132.564103,517.072969 132.564103,514 C132.564103,510.927031 130.072969,508.435897 127,508.435897 C123.927031,508.435897 121.435897,510.927031 121.435897,514 C121.435897,517.072969 123.927031,519.564103 127,519.564103 Z M127.049999,510.410256 C127.464213,510.410256 127.799999,510.746043 127.799999,511.160256 L127.799999,514.147436 C127.799999,514.561649 127.464213,514.897436 127.049999,514.897436 C126.635786,514.897436 126.299999,514.561649 126.299999,514.147436 L126.299999,511.160256 C126.299999,510.746043 126.635786,510.410256 127.049999,510.410256 Z M127.049999,517.394872 C126.580557,517.394872 126.199999,517.014314 126.199999,516.544872 C126.199999,516.07543 126.580557,515.694871 127.049999,515.694871 C127.519441,515.694871 127.9,516.07543 127.9,516.544872 C127.9,517.014314 127.519441,517.394872 127.049999,517.394872 Z" id="warning"></path>
        </g>
    </g>
</svg>